<?xml version="1.0" standalone="no"?>
<!DOCTYPE svg PUBLIC "-//W3C//DTD SVG 20010904//EN"
 "http://www.w3.org/TR/2001/REC-SVG-20010904/DTD/svg10.dtd">
<svg version="1.0" xmlns="http://www.w3.org/2000/svg"
 width="512.000000pt" height="512.000000pt" viewBox="0 0 512.000000 512.000000"
 preserveAspectRatio="xMidYMid meet">
<metadata>
Created by potrace 1.14, written by Peter Selinger 2001-2017
</metadata>
<g transform="translate(0.000000,512.000000) scale(0.100000,-0.100000)"
fill="#000000" stroke="none">
<path d="M2685 4788 c-226 -29 -596 -265 -889 -566 -82 -85 -118 -124 -195
-217 -141 -171 -299 -429 -336 -550 -27 -92 -7 -104 130 -80 22 4 161 47 310
97 148 49 277 91 285 93 8 2 40 10 71 19 61 18 85 23 139 32 19 3 42 7 50 9 8
2 38 7 65 10 28 4 61 8 75 10 14 2 79 7 145 10 145 8 198 18 226 46 49 49 141
269 184 439 39 154 49 304 29 412 -33 176 -132 256 -289 236z"/>
<path d="M4365 4362 c-165 -18 -407 -91 -630 -190 -388 -172 -745 -401 -745
-477 0 -40 43 -89 105 -121 207 -106 222 -115 290 -168 112 -88 196 -187 321
-376 156 -237 179 -244 312 -91 205 238 470 698 560 974 99 302 58 440 -134
450 -27 2 -62 1 -79 -1z"/>
<path d="M2350 3494 c-58 -8 -139 -21 -180 -29 -41 -8 -84 -17 -95 -19 -185
-37 -518 -145 -720 -235 -285 -127 -676 -356 -778 -455 -35 -33 -68 -85 -74
-116 -19 -93 110 -197 207 -165 14 4 115 52 225 105 340 165 580 264 815 334
146 44 337 90 420 100 25 3 56 8 70 11 42 8 191 19 275 19 206 0 330 -32 465
-122 241 -160 413 -424 465 -711 14 -75 14 -291 1 -356 -25 -121 -79 -247
-133 -313 -200 -244 -680 -541 -1061 -657 -60 -18 -95 -23 -157 -20 -100 4
-107 6 -235 56 -257 101 -327 118 -379 89 -28 -14 -66 -102 -86 -195 -9 -44
-18 -87 -20 -95 -2 -8 -4 -20 -4 -25 -1 -6 -19 -31 -41 -55 -102 -112 -49
-238 125 -293 107 -34 234 -37 474 -11 29 3 63 7 75 9 11 2 39 6 61 10 248 36
396 74 578 146 442 176 893 507 1089 799 144 214 204 592 149 933 -76 468
-363 912 -744 1151 -99 62 -176 90 -298 110 -107 18 -353 17 -489 0z"/>
<path d="M2462 2518 c-205 -31 -586 -238 -654 -355 -16 -28 -16 -32 12 -114
66 -197 195 -360 335 -425 22 -10 43 -22 46 -27 3 -5 9 -8 13 -8 26 4 56 0 52
-7 -3 -5 15 -7 39 -5 35 3 44 0 48 -14 4 -15 5 -15 6 -2 1 11 15 19 44 23 23
4 44 6 46 6 2 -1 8 4 12 12 6 9 9 9 9 1 0 -6 9 -11 20 -10 11 1 20 5 20 10 0
5 -7 7 -15 3 -8 -3 -15 -1 -15 4 0 9 7 11 26 9 3 0 14 11 25 26 12 14 25 23
30 20 5 -4 9 1 9 10 0 8 7 18 15 21 8 4 12 11 8 17 -3 5 -1 7 4 4 9 -6 15 4
27 43 1 3 6 12 11 20 5 8 10 21 11 28 2 8 6 21 10 30 4 9 6 26 5 36 -2 14 2
17 15 12 13 -5 14 -3 7 6 -9 11 -10 35 -4 81 1 4 6 6 13 5 6 -2 13 6 15 17 2
17 2 17 -5 3 -4 -11 -12 -14 -21 -9 -9 6 -10 11 -3 15 6 4 9 23 6 43 -4 33 -3
35 13 22 15 -11 15 -10 -1 9 -11 12 -16 22 -12 22 4 0 2 10 -5 22 -10 18 -9
20 7 14 16 -5 17 -4 4 7 -17 14 -19 22 -24 87 -2 26 -6 51 -8 56 -5 8 -17 55
-24 90 -8 44 -36 124 -45 130 -24 15 -77 20 -127 12z"/>
<path d="M2715 2180 c3 -5 8 -10 11 -10 2 0 4 5 4 10 0 6 -5 10 -11 10 -5 0
-7 -4 -4 -10z"/>
<path d="M2713 2147 c0 -8 6 -14 14 -14 9 0 10 4 2 14 -6 7 -12 13 -14 13 -1
0 -2 -6 -2 -13z"/>
<path d="M2717 2088 c9 -10 17 -18 17 -18 1 0 2 8 2 18 0 10 -8 18 -18 18 -16
0 -16 -2 -1 -18z"/>
<path d="M2773 2095 c0 -8 4 -12 9 -9 5 3 6 10 3 15 -9 13 -12 11 -12 -6z"/>
<path d="M1022 2064 l-51 -25 30 -87 c38 -109 77 -208 96 -246 11 -21 11 -26
2 -20 -7 4 -4 -6 7 -22 11 -16 31 -51 44 -79 13 -27 42 -76 63 -108 l38 -57
-25 -24 c-13 -14 -27 -22 -30 -19 -3 4 -6 2 -6 -4 0 -23 14 -20 37 8 30 35 36
36 53 4 7 -14 16 -23 18 -20 3 2 13 -4 22 -16 10 -11 22 -19 26 -18 25 4 54
-2 49 -11 -3 -6 1 -7 10 -3 14 5 14 8 3 15 -11 8 -11 10 0 15 12 5 29 37 39
73 5 18 4 150 -2 205 -7 68 -34 175 -73 290 -39 116 -46 124 -132 150 -110 33
-150 33 -218 -1z"/>
<path d="M2730 2050 c0 -5 -5 -9 -11 -7 -6 1 -14 -5 -16 -13 -4 -12 -3 -12 5
-2 5 8 13 13 18 12 5 -1 10 3 12 9 2 6 1 11 -2 11 -3 0 -6 -4 -6 -10z"/>
<path d="M2756 2038 c3 -4 11 -5 19 -1 21 7 19 12 -4 10 -11 0 -18 -5 -15 -9z"/>
<path d="M2737 2023 c-10 -21 0 -46 20 -49 25 -4 39 11 22 22 -7 4 -9 3 -5 -4
4 -7 -1 -10 -14 -9 -22 1 -27 13 -7 20 9 4 9 6 -1 6 -7 1 -10 6 -7 11 3 6 4
10 1 10 -3 0 -7 -3 -9 -7z"/>
<path d="M2774 2018 c-4 -7 -4 -10 1 -6 4 4 14 0 21 -10 7 -9 14 -12 14 -6 0
6 -6 17 -14 23 -11 9 -16 9 -22 -1z"/>
<path d="M2814 1978 c-4 -7 -3 -8 4 -4 7 4 12 1 12 -8 0 -9 5 -16 10 -16 7 0
7 6 0 20 -12 23 -16 24 -26 8z"/>
<path d="M2780 1959 c-13 -9 -12 -10 2 -5 10 3 20 1 23 -3 7 -12 -21 -22 -42
-14 -15 5 -14 3 2 -10 22 -18 39 -22 31 -8 -3 5 1 12 10 15 12 5 15 2 10 -11
-4 -10 -4 -14 0 -10 4 4 13 -1 20 -11 7 -9 14 -12 14 -7 0 6 -12 25 -27 43
-22 25 -31 30 -43 21z"/>
<path d="M2705 1941 c-3 -6 -3 -16 1 -23 5 -8 2 -9 -11 -4 -18 7 -18 6 -1 -13
18 -20 18 -21 -5 -30 -13 -5 -18 -10 -11 -10 7 -1 10 -6 6 -13 -4 -6 -3 -8 3
-5 6 4 14 0 17 -8 6 -18 -24 -17 -36 0 -5 6 -8 6 -8 -2 0 -6 5 -15 10 -18 6
-3 10 -11 10 -17 0 -6 -7 -5 -17 3 -9 8 -14 9 -10 2 4 -6 2 -17 -5 -25 -17
-18 -22 -42 -7 -32 7 4 10 2 7 -7 -3 -8 -11 -13 -17 -11 -17 3 -13 -5 15 -33
14 -14 24 -29 21 -32 -8 -7 -36 10 -36 22 1 15 -15 16 -35 2 -16 -12 -16 -14
-2 -26 11 -9 16 -10 16 -2 0 6 -6 11 -12 11 -13 0 10 20 23 20 13 0 3 -41 -11
-50 -8 -5 -11 -10 -6 -10 5 0 18 7 28 17 10 9 18 11 18 6 0 -6 -7 -16 -15 -23
-8 -7 -15 -18 -15 -24 0 -6 5 -4 10 5 5 9 20 15 33 14 15 -2 24 2 24 11 0 10
-4 11 -11 4 -5 -5 -15 -10 -20 -10 -6 0 0 11 14 24 58 55 65 73 28 67 -10 -1
-10 13 -1 22 3 4 11 3 17 -3 16 -13 37 3 39 28 1 12 4 22 7 22 4 0 7 7 7 15 0
8 -4 15 -9 15 -5 0 -2 7 6 16 9 8 14 20 10 25 -3 6 -1 15 5 22 14 17 -20 39
-40 26 -11 -8 -10 -9 5 -7 10 2 21 -2 23 -9 2 -7 -3 -10 -14 -8 -10 2 -23 4
-29 4 -6 1 -11 12 -11 26 0 25 11 34 20 15 3 -6 4 -5 3 2 -3 16 -23 22 -31 9z
m57 -76 c4 -5 2 -15 -4 -23 -6 -7 -12 -29 -13 -48 -2 -46 -19 -63 -35 -35 -11
22 -30 20 -30 -2 0 -7 4 -6 10 3 6 9 10 10 10 3 0 -7 -9 -17 -20 -23 -11 -6
-20 -16 -20 -23 0 -8 3 -8 9 2 6 9 11 10 15 2 4 -6 12 -8 18 -5 6 4 6 -1 -1
-14 -14 -27 -31 -37 -31 -19 0 8 -7 18 -16 21 -13 5 -14 9 -4 21 6 8 9 18 6
24 -10 16 5 40 21 34 13 -5 15 -2 11 15 -4 12 -2 20 3 16 18 -10 29 6 19 27
-6 11 -8 24 -5 30 8 12 47 8 57 -6z"/>
<path d="M2720 1860 c-11 -7 -11 -10 -2 -10 7 0 10 -5 6 -11 -4 -8 0 -8 15 0
25 14 28 23 4 14 -11 -4 -14 -3 -9 5 9 14 6 15 -14 2z"/>
<path d="M2711 1806 c-14 -17 -1 -28 19 -16 11 7 12 12 4 20 -8 8 -14 7 -23
-4z"/>
<path d="M2675 1700 c3 -5 8 -10 11 -10 2 0 4 5 4 10 0 6 -5 10 -11 10 -5 0
-7 -4 -4 -10z"/>
<path d="M2810 1890 c13 -9 7 -14 -12 -11 -5 0 -8 -3 -8 -9 0 -12 60 -4 74 11
8 9 6 9 -11 0 -17 -8 -22 -8 -27 4 -3 8 -11 15 -18 15 -9 0 -8 -3 2 -10z"/>
<path d="M2901 1859 c-12 -5 -27 -7 -32 -3 -5 3 -9 0 -9 -7 0 -7 -3 -10 -6 -7
-16 16 -141 -151 -150 -200 -3 -14 -7 -29 -9 -33 -8 -12 23 -77 47 -100 39
-36 106 -59 192 -65 71 -5 86 -3 126 18 32 16 51 35 67 66 26 52 23 94 -13
172 -49 108 -149 182 -213 159z m64 -82 c-57 -31 -123 -123 -154 -214 -18 -52
-20 -54 -21 -25 0 41 42 129 89 184 36 42 91 81 100 72 3 -3 -3 -10 -14 -17z"/>
<path d="M2783 1825 c-13 -39 -13 -47 2 -35 8 6 11 19 8 27 -4 9 -2 14 3 11 5
-3 15 0 21 7 10 11 9 13 -7 12 -11 -1 -23 -10 -27 -22z"/>
<path d="M2540 1640 c-8 -15 -6 -21 10 -30 13 -7 20 -7 20 0 0 5 -7 10 -15 10
-13 0 -14 4 -5 20 6 11 8 20 6 20 -3 0 -10 -9 -16 -20z"/>
<path d="M2570 1640 c0 -5 5 -10 10 -10 6 0 10 5 10 10 0 6 -4 10 -10 10 -5 0
-10 -4 -10 -10z"/>
<path d="M2585 1611 c-6 -11 13 -26 22 -17 4 3 0 6 -8 6 -11 0 -11 2 1 10 9 6
10 10 3 10 -6 0 -14 -4 -18 -9z"/>
<path d="M1040 1600 c-9 -6 -10 -10 -3 -10 6 0 15 5 18 10 8 12 4 12 -15 0z"/>
<path d="M2527 1599 c7 -7 15 -10 18 -7 3 3 -2 9 -12 12 -14 6 -15 5 -6 -5z"/>
<path d="M2640 1603 c0 -13 18 -26 38 -29 8 -2 11 3 8 13 -3 8 -6 17 -6 19 0
2 -4 4 -10 4 -5 0 -7 -8 -4 -17 5 -15 3 -15 -10 1 -9 11 -16 15 -16 9z"/>
<path d="M2563 1583 c-7 -3 -13 -9 -13 -15 0 -6 7 -4 17 3 15 12 16 12 10 -3
-3 -10 -2 -18 3 -18 12 0 13 27 3 33 -5 2 -14 2 -20 0z"/>
<path d="M2610 1575 c-11 -13 -10 -14 4 -9 9 3 16 10 16 15 0 13 -6 11 -20 -6z"/>
<path d="M2436 1565 c4 -8 8 -15 10 -15 2 0 4 7 4 15 0 8 -4 15 -10 15 -5 0
-7 -7 -4 -15z"/>
<path d="M2507 1567 c-3 -8 1 -14 8 -14 7 0 11 6 8 14 -3 7 -6 13 -8 13 -2 0
-5 -6 -8 -13z"/>
<path d="M1016 1553 c-6 -14 -5 -15 5 -6 7 7 10 15 7 18 -3 3 -9 -2 -12 -12z"/>
<path d="M1040 1565 c0 -2 6 -8 13 -14 10 -8 14 -7 14 2 0 8 -6 14 -14 14 -7
0 -13 -1 -13 -2z"/>
<path d="M2386 1562 c-3 -5 1 -9 9 -9 8 0 12 4 9 9 -3 4 -7 8 -9 8 -2 0 -6 -4
-9 -8z"/>
<path d="M2470 1546 c0 -2 7 -7 16 -10 8 -3 12 -2 9 4 -6 10 -25 14 -25 6z"/>
<path d="M1093 1527 c0 -8 6 -14 14 -14 9 0 10 4 2 14 -6 7 -12 13 -14 13 -1
0 -2 -6 -2 -13z"/>
<path d="M1030 1515 c5 -7 8 -14 5 -17 -3 -3 3 -11 12 -19 16 -12 17 -12 7 1
-6 8 -10 22 -9 31 2 9 -3 16 -11 16 -9 0 -11 -4 -4 -12z"/>
<path d="M1112 1486 c7 -8 15 -12 17 -11 5 6 -10 25 -20 25 -5 0 -4 -6 3 -14z"/>
<path d="M1004 1479 c-4 -7 -3 -9 4 -5 5 3 13 0 15 -6 4 -9 6 -10 6 -1 1 17
-16 25 -25 12z"/>
<path d="M1184 1476 c-3 -8 -14 -13 -25 -11 -10 2 -22 -1 -25 -7 -5 -7 -2 -8
6 -3 10 6 12 4 7 -8 -3 -10 -2 -17 3 -17 6 0 10 7 10 16 0 8 4 13 9 9 6 -3 15
4 21 15 6 11 8 20 5 20 -3 0 -8 -6 -11 -14z"/>
<path d="M1075 1469 c-4 -6 -5 -12 -2 -15 2 -3 7 2 10 11 7 17 1 20 -8 4z"/>
<path d="M1095 1459 c-6 -8 -4 -10 5 -4 10 6 12 4 7 -9 -4 -10 -7 -20 -7 -22
0 -3 -4 -3 -8 0 -4 2 -14 1 -22 -4 -11 -7 -9 -9 8 -7 27 2 49 34 34 49 -6 6
-12 5 -17 -3z"/>
<path d="M1050 1445 c0 -8 4 -15 10 -15 5 0 7 7 4 15 -4 8 -8 15 -10 15 -2 0
-4 -7 -4 -15z"/>
<path d="M1210 1455 c0 -5 5 -17 10 -25 5 -8 10 -10 10 -5 0 6 -5 17 -10 25
-5 8 -10 11 -10 5z"/>
<path d="M1015 1439 c-4 -6 -5 -12 -2 -15 2 -3 7 2 10 11 7 17 1 20 -8 4z"/>
<path d="M1181 1436 c-10 -12 -8 -17 9 -26 12 -6 24 -9 28 -6 3 3 0 6 -7 6 -7
0 -9 4 -6 10 4 6 -1 7 -12 3 -16 -6 -16 -5 -4 10 7 9 11 17 8 17 -2 0 -10 -6
-16 -14z"/>
<path d="M1030 1421 c0 -10 29 -36 34 -30 1 2 -6 12 -16 22 -10 9 -18 13 -18
8z"/>
<path d="M1116 1415 c-9 -26 -7 -32 5 -12 6 10 9 21 6 23 -2 3 -7 -2 -11 -11z"/>
<path d="M1143 1408 c-18 -23 -25 -43 -8 -23 9 11 21 19 26 17 6 -1 8 2 4 8
-8 13 -10 13 -22 -2z"/>
<path d="M1014 1395 c5 -35 66 -55 66 -22 0 7 -4 6 -11 -3 -8 -11 -12 -12 -16
-2 -2 6 -11 12 -19 12 -9 0 -13 4 -9 9 3 5 1 12 -4 15 -5 4 -8 -1 -7 -9z"/>
<path d="M1089 1384 c14 -28 -13 -53 -52 -49 -22 3 -25 0 -19 -12 6 -9 0 -39
-15 -80 -30 -84 -33 -195 -6 -250 13 -29 28 -41 58 -51 158 -52 270 40 278
230 1 29 6 56 11 59 4 4 3 15 -4 25 -11 18 -11 18 -6 0 5 -16 4 -17 -8 -7 -16
13 -10 45 6 35 7 -4 7 0 0 12 -5 11 -12 26 -16 34 -3 8 -4 3 -1 -12 3 -15 0
-30 -7 -34 -6 -4 -8 -3 -5 3 4 6 -1 17 -10 24 -14 12 -16 12 -8 -1 4 -8 -2 -5
-14 8 -12 12 -26 20 -32 17 -5 -4 -9 -2 -9 4 0 5 6 11 13 14 6 2 9 8 4 12 -4
5 -13 1 -20 -8 -14 -19 -61 -13 -50 7 4 6 -2 4 -12 -4 -11 -9 -16 -10 -11 -2
4 6 2 12 -3 12 -6 0 -11 -4 -11 -9 0 -5 -11 -11 -25 -13 -21 -4 -23 -3 -13 9
9 11 7 18 -7 31 -16 16 -17 16 -6 -4z m-39 -64 c0 -5 -4 -10 -10 -10 -5 0 -10
5 -10 10 0 6 5 10 10 10 6 0 10 -4 10 -10z m61 -195 c42 -22 104 -26 151 -11
37 13 40 13 25 -1 -24 -24 -109 -29 -162 -9 -46 18 -105 70 -105 93 0 8 14 -2
31 -22 18 -20 44 -42 60 -50z"/>
<path d="M1165 1390 c-16 -7 -17 -9 -3 -9 9 -1 20 4 23 9 7 11 7 11 -20 0z"/>
<path d="M1255 1380 c3 -5 11 -10 16 -10 6 0 7 5 4 10 -3 6 -11 10 -16 10 -6
0 -7 -4 -4 -10z"/>
<path d="M1007 1359 c7 -7 15 -10 18 -7 3 3 -2 9 -12 12 -14 6 -15 5 -6 -5z"/>
<path d="M1260 1346 c0 -2 9 -6 20 -9 11 -3 20 -1 20 4 0 5 -9 9 -20 9 -11 0
-20 -2 -20 -4z"/>
<path d="M1348 1313 c6 -2 10 -9 7 -14 -4 -5 1 -6 10 -2 13 5 14 7 3 14 -7 5
-17 8 -23 8 -5 0 -4 -3 3 -6z"/>
<path d="M1351 1273 c-1 -17 16 -25 25 -12 4 7 3 9 -4 5 -5 -3 -13 0 -15 6 -4
9 -6 10 -6 1z"/>
</g>
</svg>
