<svg id="svg" version="1.1" xmlns="http://www.w3.org/2000/svg" xmlns:xlink="http://www.w3.org/1999/xlink" width="400" height="400" viewBox="0, 0, 400,400"><g id="svgg"><path id="path0" d="M209.677 32.818 C 201.212 33.955,189.396 39.211,176.604 47.529 C 172.300 50.328,161.115 58.369,160.400 59.179 C 160.290 59.303,159.030 60.394,157.600 61.602 C 147.069 70.503,137.249 80.602,128.433 91.600 C 126.405 94.130,124.527 96.471,124.260 96.802 C 113.796 109.789,102.400 130.507,102.400 136.543 C 102.400 141.676,107.229 140.896,137.418 130.884 C 169.453 120.260,175.550 118.932,198.400 117.605 C 210.447 116.905,213.272 116.374,214.818 114.522 C 218.906 109.626,223.181 99.994,227.568 85.800 C 227.891 84.754,228.841 80.688,229.998 75.400 C 231.507 68.503,231.998 53.592,230.855 49.400 C 227.413 36.783,220.494 31.365,209.677 32.818 M334.200 65.067 C 326.742 65.978,309.349 70.557,303.400 73.176 C 302.960 73.369,300.080 74.516,297.000 75.724 C 269.364 86.563,235.783 106.399,232.774 113.662 C 231.577 116.553,235.129 121.305,240.400 123.861 C 264.319 135.459,270.833 141.288,286.599 165.200 C 297.227 181.321,299.331 182.286,306.724 174.431 C 313.149 167.604,324.250 152.080,331.202 140.200 C 355.155 99.263,361.644 72.590,349.092 66.662 C 345.663 65.043,339.657 64.400,334.200 65.067 M197.800 129.052 C 185.233 129.487,165.961 132.694,151.000 136.840 C 149.460 137.267,147.570 137.791,146.800 138.005 C 124.715 144.132,97.465 155.970,76.063 168.733 C 73.787 170.090,71.845 171.200,71.747 171.200 C 71.648 171.200,71.080 171.542,70.484 171.961 C 69.888 172.380,66.610 174.566,63.200 176.820 C 44.520 189.166,40.862 197.267,50.873 204.122 C 57.066 208.362,57.595 208.257,76.600 199.011 C 91.167 191.924,91.321 191.852,102.000 187.115 C 107.912 184.492,120.347 179.464,123.200 178.541 C 124.190 178.222,125.360 177.797,125.800 177.597 C 130.848 175.311,151.176 169.485,161.200 167.451 C 191.275 161.349,213.373 162.072,226.968 169.603 C 237.217 175.281,247.987 185.435,254.628 195.680 C 256.397 198.409,256.912 199.288,259.332 203.700 C 270.754 224.523,270.442 256.583,258.647 274.200 C 254.920 279.766,246.756 287.612,237.769 294.265 C 237.126 294.741,235.790 295.737,234.800 296.479 C 232.819 297.964,220.100 306.400,219.843 306.400 C 219.754 306.400,218.538 307.091,217.141 307.935 C 215.743 308.779,213.160 310.244,211.400 311.190 C 209.640 312.135,206.940 313.586,205.400 314.413 C 199.367 317.654,188.439 322.280,181.418 324.568 C 177.487 325.848,176.264 326.207,172.200 327.275 C 165.254 329.099,157.513 327.510,140.898 320.849 C 119.822 312.401,116.693 313.507,112.993 330.713 C 110.537 342.135,110.922 341.063,108.198 344.032 C 102.849 349.861,102.551 354.824,107.231 360.141 C 113.889 367.704,128.923 369.741,154.800 366.585 C 157.830 366.215,170.682 364.184,173.600 363.613 C 174.590 363.419,176.570 363.055,178.000 362.804 C 183.097 361.908,188.023 360.704,193.000 359.138 C 194.320 358.722,196.030 358.185,196.800 357.943 C 210.477 353.652,229.165 344.335,245.200 333.813 C 251.473 329.696,258.486 324.630,262.372 321.407 C 286.648 301.273,295.082 287.393,299.565 260.200 C 300.954 251.771,300.952 236.161,299.561 227.800 C 298.283 220.124,298.133 219.368,296.983 214.800 C 296.623 213.370,296.186 211.570,296.011 210.800 C 290.754 187.568,269.122 155.957,249.200 142.392 C 248.430 141.868,247.710 141.340,247.600 141.219 C 247.293 140.881,242.398 137.600,242.201 137.600 C 242.106 137.600,241.176 137.060,240.134 136.399 C 231.959 131.215,215.889 128.426,197.800 129.052 M191.000 203.659 C 170.745 208.419,143.200 224.910,143.200 232.277 C 143.200 235.667,146.954 245.346,150.652 251.491 C 167.258 279.085,197.918 281.226,206.588 255.397 C 209.768 245.924,209.534 230.363,206.003 216.400 C 203.170 205.203,203.076 204.977,200.721 203.759 C 199.482 203.118,193.560 203.057,191.000 203.659 M87.400 235.998 C 85.141 236.707,81.806 238.963,81.676 239.871 C 81.608 240.348,82.661 243.857,84.016 247.669 C 87.566 257.660,87.995 258.822,88.786 260.600 C 89.177 261.480,90.178 263.820,91.012 265.800 C 106.324 302.187,122.768 299.525,114.598 261.982 C 114.241 260.342,113.801 258.550,113.621 258.000 C 113.440 257.450,113.066 256.190,112.788 255.200 C 109.984 245.206,107.648 239.772,105.935 239.252 C 105.201 239.029,102.710 238.185,100.400 237.378 C 95.913 235.808,90.005 235.181,87.400 235.998 M224.615 253.234 C 216.281 256.145,208.533 268.956,211.310 275.234 C 214.895 283.341,232.158 286.856,239.792 281.033 C 250.009 273.240,236.769 248.988,224.615 253.234 M232.000 257.810 C 232.000 258.145,231.536 258.596,230.968 258.812 C 227.170 260.256,220.177 270.022,218.762 275.857 C 218.196 278.195,217.724 278.827,217.166 277.997 C 215.498 275.511,221.383 264.363,226.851 259.653 C 229.454 257.410,232.000 256.499,232.000 257.810 M90.909 291.375 C 84.721 292.874,81.797 298.726,81.803 309.600 C 81.807 318.059,82.634 319.762,87.538 321.412 C 98.986 325.262,107.262 318.116,107.738 303.968 C 108.047 294.797,100.400 289.075,90.909 291.375 M86.301 303.204 C 89.119 307.514,97.550 310.723,101.126 308.846 C 102.652 308.046,105.431 307.840,104.823 308.573 C 100.611 313.647,84.400 308.570,84.400 302.177 C 84.400 300.739,84.847 300.981,86.301 303.204 " stroke="none" fill="#faf9fa" fill-rule="evenodd"></path><path id="path1" d="M3.969 4.285 C 3.117 4.668,2.308 5.428,1.969 6.164 C 1.086 8.082,1.114 396.778,1.998 398.700 C 2.657 400.134,5.200 400.690,5.200 399.400 C 5.200 399.070,5.009 398.800,4.776 398.800 C 4.543 398.800,4.464 398.620,4.600 398.400 C 4.736 398.180,4.648 398.000,4.405 398.000 C 3.458 398.000,1.912 395.970,2.102 394.976 C 2.205 394.439,2.134 394.000,1.945 394.000 C 1.752 394.000,1.600 309.302,1.600 202.400 C 1.600 95.498,1.752 10.800,1.945 10.800 C 2.134 10.800,2.204 10.357,2.101 9.815 C 1.912 8.826,2.358 8.181,3.790 7.373 C 4.206 7.139,4.739 6.606,4.973 6.190 C 5.807 4.712,6.404 4.314,7.412 4.567 C 7.979 4.709,8.400 4.641,8.400 4.408 C 8.400 4.131,70.145 4.000,200.000 4.000 C 329.855 4.000,391.600 4.131,391.600 4.408 C 391.600 4.641,392.021 4.709,392.588 4.567 C 393.596 4.314,394.193 4.712,395.027 6.190 C 395.261 6.606,395.794 7.139,396.210 7.373 C 397.642 8.181,398.088 8.826,397.899 9.815 C 397.796 10.357,397.866 10.800,398.055 10.800 C 398.248 10.800,398.400 95.498,398.400 202.400 C 398.400 309.302,398.248 394.000,398.055 394.000 C 397.866 394.000,397.795 394.439,397.898 394.976 C 398.088 395.970,396.542 398.000,395.595 398.000 C 395.352 398.000,395.264 398.180,395.400 398.400 C 395.536 398.620,395.457 398.800,395.224 398.800 C 394.991 398.800,394.800 399.070,394.800 399.400 C 394.800 400.690,397.343 400.134,398.002 398.700 C 398.886 396.778,398.914 8.082,398.031 6.164 C 397.673 5.386,396.894 4.683,395.928 4.264 C 393.601 3.256,6.211 3.276,3.969 4.285 M7.600 200.000 L 7.600 392.400 200.000 392.400 L 392.400 392.400 392.400 200.000 L 392.400 7.600 200.000 7.600 L 7.600 7.600 7.600 200.000 M218.769 32.789 C 232.132 37.673,236.145 57.984,228.847 83.800 C 228.661 84.460,228.280 85.810,228.000 86.800 C 227.336 89.156,226.036 93.189,225.614 94.200 C 225.431 94.640,225.064 95.630,224.800 96.400 C 224.536 97.170,224.157 98.205,223.960 98.700 C 223.762 99.195,223.439 100.005,223.241 100.500 C 222.163 103.206,218.719 110.111,217.488 112.036 C 214.282 117.047,213.382 117.357,199.628 118.200 C 187.755 118.928,182.647 119.473,175.000 120.828 C 170.424 121.639,164.311 123.044,161.200 124.000 C 160.650 124.169,159.390 124.532,158.400 124.807 C 157.410 125.082,155.610 125.619,154.400 126.000 C 153.190 126.381,151.390 126.928,150.400 127.216 C 149.410 127.504,148.429 127.888,148.220 128.070 C 148.011 128.251,147.514 128.400,147.115 128.400 C 146.716 128.400,146.077 128.568,145.695 128.774 C 144.953 129.174,120.622 137.159,117.600 137.995 C 116.610 138.269,115.350 138.630,114.800 138.797 C 109.197 140.500,103.521 140.682,102.315 139.198 C 99.996 136.341,104.780 124.274,113.572 110.800 C 114.100 109.991,117.543 104.894,118.573 103.398 C 128.964 88.293,143.553 72.529,159.600 59.067 C 173.628 47.298,193.744 35.695,204.449 33.198 C 205.632 32.922,207.050 32.554,207.600 32.380 C 209.714 31.710,216.498 31.959,218.769 32.789 M344.367 64.458 C 347.886 65.070,350.282 66.140,352.125 67.924 C 353.589 69.340,354.048 70.115,355.253 73.200 C 355.934 74.943,355.975 84.592,355.313 87.200 C 355.062 88.190,354.640 89.900,354.376 91.000 C 351.131 104.519,338.755 130.819,328.743 145.472 C 328.114 146.392,327.600 147.253,327.600 147.385 C 327.600 147.618,322.214 155.765,321.512 156.594 C 321.323 156.817,319.895 158.800,318.339 161.000 C 312.465 169.304,305.380 177.375,302.400 179.159 C 298.414 181.545,294.655 178.831,288.154 168.871 C 271.199 142.899,264.365 136.315,244.000 126.332 C 226.594 117.799,227.633 112.682,249.581 98.845 C 253.152 96.594,254.070 96.052,259.245 93.138 C 259.770 92.842,260.290 92.510,260.400 92.400 C 260.919 91.881,279.220 82.598,283.404 80.731 C 286.606 79.303,289.536 78.018,291.000 77.401 C 291.660 77.123,292.920 76.585,293.800 76.207 C 296.237 75.158,297.045 74.846,305.000 71.883 C 309.428 70.233,317.926 67.617,322.000 66.648 C 327.491 65.344,328.709 65.100,332.200 64.606 C 336.897 63.941,341.101 63.890,344.367 64.458 M215.800 128.760 C 220.420 129.210,222.440 129.500,224.400 129.995 C 225.170 130.190,226.700 130.561,227.800 130.820 C 234.757 132.458,244.289 137.355,250.721 142.598 C 251.095 142.902,252.480 144.012,253.800 145.064 C 269.209 157.348,283.619 176.611,291.230 195.100 C 291.433 195.595,291.804 196.495,292.054 197.100 C 292.692 198.650,293.048 199.591,293.600 201.200 C 293.864 201.970,294.224 202.960,294.400 203.400 C 302.939 224.796,303.558 255.342,295.934 279.000 C 292.166 290.692,285.822 300.208,274.142 311.691 C 269.755 316.004,267.640 317.898,261.800 322.745 C 255.192 328.231,241.601 337.417,233.100 342.144 C 232.055 342.725,230.435 343.625,229.500 344.145 C 223.293 347.596,213.933 352.106,208.300 354.360 C 207.805 354.558,206.547 355.098,205.504 355.560 C 204.462 356.022,203.424 356.400,203.199 356.400 C 202.974 356.400,202.477 356.577,202.095 356.792 C 201.385 357.193,193.649 359.813,191.300 360.449 C 190.585 360.642,189.325 360.992,188.500 361.227 C 186.091 361.912,184.220 362.320,175.800 363.996 C 168.323 365.484,154.028 367.498,144.631 368.387 C 135.209 369.278,123.200 368.653,117.642 366.983 C 103.741 362.805,99.117 352.049,107.609 343.647 C 110.113 341.171,110.278 340.724,111.997 331.800 C 114.802 317.242,118.619 313.188,127.400 315.445 C 128.720 315.785,130.250 316.159,130.800 316.276 C 131.586 316.445,146.058 322.030,149.800 323.610 C 151.821 324.463,156.404 325.811,160.506 326.759 C 162.933 327.321,169.208 327.329,171.354 326.774 C 176.853 325.352,178.962 324.742,179.695 324.361 C 180.077 324.162,180.664 324.000,181.000 324.000 C 181.336 324.000,181.923 323.826,182.305 323.613 C 182.687 323.400,183.867 322.948,184.927 322.608 C 190.074 320.960,206.071 313.590,212.000 310.136 C 212.990 309.559,214.358 308.770,215.040 308.384 C 220.041 305.549,233.201 297.019,235.629 295.039 C 236.194 294.578,237.266 293.750,238.010 293.200 C 244.278 288.568,253.997 279.463,257.013 275.400 C 258.692 273.137,260.643 269.529,262.095 266.000 C 262.322 265.450,262.657 264.640,262.840 264.200 C 263.658 262.232,265.291 256.281,265.968 252.800 C 267.534 244.744,267.472 232.020,265.833 225.000 C 264.349 218.644,263.895 216.892,263.577 216.305 C 263.370 215.923,263.200 215.284,263.200 214.885 C 263.200 214.486,263.057 213.989,262.882 213.780 C 262.707 213.571,262.332 212.680,262.048 211.800 C 258.787 201.662,249.332 187.956,239.974 179.800 C 229.302 170.497,221.758 166.782,209.903 164.989 C 202.706 163.901,184.177 164.316,175.113 165.769 C 167.348 167.014,165.163 167.399,161.117 168.235 C 156.913 169.104,148.914 171.025,145.200 172.056 C 144.430 172.270,143.260 172.594,142.600 172.775 C 141.940 172.957,140.590 173.370,139.600 173.693 C 138.610 174.016,136.450 174.700,134.800 175.212 C 133.150 175.725,131.629 176.292,131.420 176.472 C 131.211 176.652,130.740 176.800,130.373 176.800 C 129.801 176.800,127.519 177.599,124.600 178.821 C 124.160 179.005,122.000 179.811,119.800 180.612 C 115.816 182.063,107.731 185.346,104.504 186.824 C 103.572 187.251,102.705 187.600,102.579 187.600 C 102.453 187.600,101.146 188.161,99.675 188.846 C 98.204 189.531,96.100 190.501,95.000 191.001 C 92.419 192.173,87.013 194.742,79.000 198.606 C 75.480 200.303,70.350 202.761,67.600 204.069 C 64.850 205.376,62.168 206.661,61.639 206.923 C 57.322 209.065,48.501 205.032,46.037 199.790 C 45.140 197.881,44.847 193.065,45.600 192.600 C 45.820 192.464,46.000 192.084,46.000 191.754 C 46.000 186.298,68.441 170.847,96.800 156.779 C 103.664 153.374,104.551 152.954,108.600 151.183 C 109.700 150.702,111.320 149.986,112.200 149.592 C 113.501 149.009,117.720 147.330,124.200 144.817 C 124.640 144.647,125.450 144.315,126.000 144.080 C 126.550 143.845,127.720 143.424,128.600 143.145 C 129.480 142.865,130.371 142.493,130.580 142.318 C 130.789 142.143,131.286 142.000,131.685 142.000 C 132.084 142.000,132.723 141.829,133.105 141.619 C 134.737 140.724,146.141 137.285,154.400 135.199 C 161.675 133.360,166.065 132.440,175.400 130.797 C 176.500 130.603,178.660 130.267,180.200 130.049 C 181.740 129.832,184.308 129.462,185.907 129.227 C 187.507 128.992,190.027 128.782,191.507 128.760 C 192.988 128.739,195.190 128.574,196.400 128.395 C 199.030 128.005,210.202 128.215,215.800 128.760 M201.000 203.145 C 203.349 204.214,203.578 204.612,205.184 210.400 C 205.459 211.390,205.845 212.613,206.042 213.119 C 206.239 213.624,206.400 214.421,206.400 214.890 C 206.400 216.631,207.426 218.695,210.034 222.200 C 214.577 228.305,217.912 234.056,220.008 239.400 C 221.624 243.520,222.452 246.293,223.252 250.262 C 223.727 252.621,223.788 252.709,224.700 252.362 C 229.259 250.629,237.326 255.089,240.401 261.042 C 240.730 261.679,241.098 262.290,241.220 262.400 C 241.896 263.010,243.777 267.887,244.387 270.610 C 245.249 274.460,243.304 279.107,239.672 281.877 C 232.638 287.242,214.869 283.931,211.217 276.575 C 210.175 274.478,210.165 274.473,207.900 275.074 C 197.481 277.837,184.937 278.128,175.827 275.817 C 168.222 273.888,160.800 269.350,160.800 266.629 C 160.800 265.933,160.382 265.126,159.677 264.460 C 155.028 260.068,148.185 249.622,145.552 242.900 C 145.359 242.405,145.038 241.595,144.840 241.100 C 144.329 239.821,143.770 238.082,143.200 236.000 C 142.929 235.010,142.536 233.729,142.327 233.153 C 139.777 226.132,172.636 206.138,192.400 202.684 C 195.108 202.211,199.458 202.444,201.000 203.145 M100.200 236.561 C 108.419 239.301,107.831 238.932,109.193 242.200 C 109.468 242.860,109.852 243.713,110.047 244.095 C 110.241 244.477,110.400 245.116,110.400 245.515 C 110.400 245.914,110.546 246.411,110.724 246.620 C 110.903 246.829,111.651 248.890,112.387 251.200 C 113.124 253.510,113.878 255.571,114.063 255.780 C 114.248 255.989,114.400 256.508,114.400 256.933 C 114.400 257.696,115.782 259.200,116.484 259.200 C 117.093 259.200,118.408 262.642,119.020 265.837 C 120.601 274.100,119.032 284.173,114.973 291.824 C 113.390 294.807,109.844 300.202,109.206 300.596 C 108.983 300.734,108.794 301.512,108.786 302.324 C 108.663 315.124,102.669 323.042,93.155 322.972 C 89.343 322.943,88.173 322.678,84.907 321.100 C 80.303 318.875,79.392 306.140,83.204 297.280 C 84.137 295.111,84.083 294.617,82.378 289.600 C 81.962 288.377,80.634 281.612,80.062 277.800 C 79.003 270.753,79.203 261.687,80.497 258.091 C 80.963 256.793,84.266 255.223,85.249 255.831 C 85.442 255.950,85.600 255.955,85.600 255.843 C 85.600 255.203,84.292 250.842,83.007 247.200 C 80.217 239.290,80.237 239.067,83.914 236.912 C 88.384 234.293,93.092 234.191,100.200 236.561 M218.600 272.661 C 218.264 273.465,218.077 274.210,218.184 274.317 C 218.352 274.485,218.637 273.871,219.399 271.700 C 219.805 270.544,219.161 271.319,218.600 272.661 " stroke="none" fill="#040404" fill-rule="evenodd"></path><path id="path2" d="M224.800 37.400 C 225.546 38.170,226.247 38.800,226.357 38.800 C 226.467 38.800,225.946 38.170,225.200 37.400 C 224.454 36.630,223.753 36.000,223.643 36.000 C 223.533 36.000,224.054 36.630,224.800 37.400 M231.748 59.200 C 231.748 61.510,231.814 62.455,231.895 61.300 C 231.976 60.145,231.976 58.255,231.895 57.100 C 231.814 55.945,231.748 56.890,231.748 59.200 M152.175 66.100 L 151.000 67.400 152.300 66.225 C 153.512 65.130,153.784 64.800,153.475 64.800 C 153.406 64.800,152.821 65.385,152.175 66.100 M146.985 70.900 L 145.000 73.000 147.100 71.015 C 148.255 69.923,149.200 68.978,149.200 68.915 C 149.200 68.617,148.829 68.949,146.985 70.900 M140.975 76.900 L 139.800 78.200 141.100 77.025 C 142.312 75.930,142.584 75.600,142.275 75.600 C 142.206 75.600,141.621 76.185,140.975 76.900 M355.334 79.600 C 355.334 81.250,355.405 81.925,355.491 81.100 C 355.578 80.275,355.578 78.925,355.491 78.100 C 355.405 77.275,355.334 77.950,355.334 79.600 M136.778 81.500 L 135.400 83.000 136.900 81.622 C 138.296 80.338,138.584 80.000,138.278 80.000 C 138.212 80.000,137.537 80.675,136.778 81.500 M235.200 110.200 C 234.228 111.190,233.523 112.000,233.633 112.000 C 233.743 112.000,234.628 111.190,235.600 110.200 C 236.572 109.210,237.277 108.400,237.167 108.400 C 237.057 108.400,236.172 109.210,235.200 110.200 M201.900 117.482 C 202.395 117.578,203.205 117.578,203.700 117.482 C 204.195 117.387,203.790 117.309,202.800 117.309 C 201.810 117.309,201.405 117.387,201.900 117.482 M195.900 117.882 C 196.395 117.978,197.205 117.978,197.700 117.882 C 198.195 117.787,197.790 117.709,196.800 117.709 C 195.810 117.709,195.405 117.787,195.900 117.882 M234.800 120.200 C 235.546 120.970,236.247 121.600,236.357 121.600 C 236.467 121.600,235.946 120.970,235.200 120.200 C 234.454 119.430,233.753 118.800,233.643 118.800 C 233.533 118.800,234.054 119.430,234.800 120.200 M196.900 129.091 C 197.725 129.178,199.075 129.178,199.900 129.091 C 200.725 129.005,200.050 128.934,198.400 128.934 C 196.750 128.934,196.075 129.005,196.900 129.091 M208.291 129.089 C 209.001 129.177,210.261 129.179,211.091 129.092 C 211.921 129.005,211.340 128.933,209.800 128.931 C 208.260 128.929,207.581 129.000,208.291 129.089 M102.093 136.800 C 102.093 137.570,102.175 137.885,102.276 137.500 C 102.376 137.115,102.376 136.485,102.276 136.100 C 102.175 135.715,102.093 136.030,102.093 136.800 M266.000 139.800 C 266.746 140.570,267.447 141.200,267.557 141.200 C 267.667 141.200,267.146 140.570,266.400 139.800 C 265.654 139.030,264.953 138.400,264.843 138.400 C 264.733 138.400,265.254 139.030,266.000 139.800 M270.400 144.125 C 270.400 144.194,270.985 144.779,271.700 145.425 L 273.000 146.600 271.825 145.300 C 270.730 144.088,270.400 143.816,270.400 144.125 M260.200 151.600 C 261.059 152.480,261.852 153.200,261.962 153.200 C 262.072 153.200,261.459 152.480,260.600 151.600 C 259.741 150.720,258.948 150.000,258.838 150.000 C 258.728 150.000,259.341 150.720,260.200 151.600 M265.000 156.400 C 266.083 157.500,267.060 158.400,267.170 158.400 C 267.280 158.400,266.483 157.500,265.400 156.400 C 264.317 155.300,263.340 154.400,263.230 154.400 C 263.120 154.400,263.917 155.300,265.000 156.400 M194.515 163.496 C 195.788 163.576,197.768 163.575,198.915 163.494 C 200.062 163.414,199.020 163.349,196.600 163.350 C 194.180 163.351,193.242 163.416,194.515 163.496 M188.105 163.887 C 188.714 163.979,189.614 163.977,190.105 163.882 C 190.597 163.787,190.100 163.711,189.000 163.714 C 187.900 163.717,187.497 163.795,188.105 163.887 M203.100 163.882 C 203.595 163.978,204.405 163.978,204.900 163.882 C 205.395 163.787,204.990 163.709,204.000 163.709 C 203.010 163.709,202.605 163.787,203.100 163.882 M182.100 164.276 C 182.485 164.376,183.115 164.376,183.500 164.276 C 183.885 164.175,183.570 164.093,182.800 164.093 C 182.030 164.093,181.715 164.175,182.100 164.276 M307.775 173.300 L 306.600 174.600 307.900 173.425 C 308.615 172.779,309.200 172.194,309.200 172.125 C 309.200 171.816,308.870 172.088,307.775 173.300 M294.400 176.600 C 295.146 177.370,295.847 178.000,295.957 178.000 C 296.067 178.000,295.546 177.370,294.800 176.600 C 294.054 175.830,293.353 175.200,293.243 175.200 C 293.133 175.200,293.654 175.830,294.400 176.600 M60.600 178.235 L 59.400 179.266 60.700 178.406 C 61.415 177.933,62.000 177.468,62.000 177.373 C 62.000 177.073,61.831 177.178,60.600 178.235 M244.000 183.000 C 246.081 185.090,247.874 186.800,247.984 186.800 C 248.094 186.800,246.481 185.090,244.400 183.000 C 242.319 180.910,240.526 179.200,240.416 179.200 C 240.306 179.200,241.919 180.910,244.000 183.000 M195.705 203.087 C 196.314 203.179,197.214 203.177,197.705 203.082 C 198.197 202.987,197.700 202.911,196.600 202.914 C 195.500 202.917,195.097 202.995,195.705 203.087 M57.700 207.076 C 58.085 207.176,58.715 207.176,59.100 207.076 C 59.485 206.975,59.170 206.893,58.400 206.893 C 57.630 206.893,57.315 206.975,57.700 207.076 M206.973 220.000 C 209.530 233.352,209.381 247.077,206.588 255.397 C 199.691 275.944,177.504 279.723,160.100 263.315 C 158.725 262.019,157.600 261.065,157.600 261.196 C 157.600 261.327,158.365 262.167,159.300 263.063 C 166.332 269.805,175.277 274.087,183.200 274.505 C 184.805 274.590,184.990 274.698,184.905 275.500 C 184.814 276.359,184.950 276.403,187.905 276.467 C 193.157 276.581,198.914 276.375,200.800 276.005 C 205.672 275.048,207.122 274.730,208.547 274.304 C 209.925 273.892,210.161 273.926,210.701 274.620 C 211.299 275.389,211.303 275.389,210.960 274.600 C 208.816 269.667,216.989 255.732,223.153 253.810 C 223.716 253.634,223.926 253.402,223.667 253.241 C 223.426 253.092,223.026 251.987,222.780 250.785 C 221.278 243.461,217.917 235.198,214.630 230.748 C 213.274 228.912,213.247 228.899,211.547 229.210 C 209.483 229.587,208.999 229.120,208.653 226.414 C 208.286 223.549,207.745 221.085,207.244 220.000 L 206.782 219.000 206.973 220.000 M267.293 232.000 C 267.293 232.770,267.375 233.085,267.476 232.700 C 267.576 232.315,267.576 231.685,267.476 231.300 C 267.375 230.915,267.293 231.230,267.293 232.000 M267.753 239.400 C 267.753 242.040,267.818 243.068,267.897 241.684 C 267.975 240.301,267.974 238.141,267.895 236.884 C 267.816 235.628,267.752 236.760,267.753 239.400 M90.307 235.490 C 91.026 235.579,92.106 235.577,92.707 235.486 C 93.308 235.395,92.720 235.322,91.400 235.324 C 90.080 235.326,89.588 235.401,90.307 235.490 M300.520 237.600 C 300.520 238.810,300.595 239.305,300.687 238.700 C 300.778 238.095,300.778 237.105,300.687 236.500 C 300.595 235.895,300.520 236.390,300.520 237.600 M267.293 246.800 C 267.293 247.570,267.375 247.885,267.476 247.500 C 267.576 247.115,267.576 246.485,267.476 246.100 C 267.375 245.715,267.293 246.030,267.293 246.800 M300.524 250.600 C 300.526 251.920,300.601 252.412,300.690 251.693 C 300.779 250.974,300.777 249.894,300.686 249.293 C 300.595 248.692,300.522 249.280,300.524 250.600 M230.900 257.476 C 231.675 257.678,231.824 258.222,231.190 258.537 C 230.965 258.649,231.010 258.694,231.290 258.637 C 232.272 258.438,232.128 257.197,231.129 257.246 C 230.452 257.280,230.390 257.342,230.900 257.476 M87.624 258.504 C 87.611 258.671,88.590 261.274,89.800 264.290 C 91.010 267.305,92.000 270.003,92.000 270.286 C 92.000 270.569,92.180 270.800,92.400 270.800 C 94.226 270.800,92.590 272.734,90.548 272.989 C 89.309 273.144,86.840 273.885,85.060 274.635 C 83.280 275.386,81.594 276.000,81.312 276.000 C 80.345 276.000,81.307 282.902,83.318 290.400 C 83.760 292.050,84.206 293.998,84.308 294.728 L 84.494 296.057 85.222 294.860 C 90.106 286.829,108.688 292.388,107.754 301.600 L 107.612 303.000 107.995 301.787 C 108.205 301.121,108.706 300.221,109.108 299.787 C 113.533 295.019,117.600 285.646,117.600 280.217 C 117.600 277.309,116.545 268.671,115.980 266.951 C 115.663 265.987,115.636 266.092,115.811 267.600 C 119.692 300.979,105.375 299.940,91.012 265.800 C 89.032 261.093,87.653 258.125,87.624 258.504 M114.080 259.400 C 114.080 259.840,114.224 260.650,114.400 261.200 C 114.654 261.992,114.720 262.033,114.720 261.400 C 114.720 260.960,114.576 260.150,114.400 259.600 C 114.146 258.808,114.080 258.767,114.080 259.400 M226.985 261.700 L 225.000 263.800 227.100 261.815 C 228.255 260.723,229.200 259.778,229.200 259.715 C 229.200 259.417,228.829 259.749,226.985 261.700 M114.880 263.000 C 114.880 263.440,115.024 264.250,115.200 264.800 C 115.454 265.592,115.520 265.633,115.520 265.000 C 115.520 264.560,115.376 263.750,115.200 263.200 C 114.946 262.408,114.880 262.367,114.880 263.000 M243.714 272.600 C 243.717 273.700,243.795 274.103,243.887 273.495 C 243.979 272.886,243.977 271.986,243.882 271.495 C 243.787 271.003,243.711 271.500,243.714 272.600 M216.893 276.400 C 216.893 277.170,216.975 277.485,217.076 277.100 C 217.176 276.715,217.176 276.085,217.076 275.700 C 216.975 275.315,216.893 275.630,216.893 276.400 M251.188 282.700 L 248.600 285.400 251.300 282.812 C 252.785 281.388,254.000 280.173,254.000 280.112 C 254.000 279.817,253.593 280.192,251.188 282.700 M84.400 301.504 C 84.400 301.671,84.764 302.035,85.209 302.313 C 85.959 302.781,85.981 302.759,85.513 302.009 C 85.009 301.203,84.400 300.926,84.400 301.504 M279.775 304.900 L 278.600 306.200 279.900 305.025 C 280.615 304.379,281.200 303.794,281.200 303.725 C 281.200 303.416,280.870 303.688,279.775 304.900 M107.693 305.600 C 107.693 306.370,107.775 306.685,107.876 306.300 C 107.976 305.915,107.976 305.285,107.876 304.900 C 107.775 304.515,107.693 304.830,107.693 305.600 M81.340 309.600 C 81.340 311.470,81.409 312.235,81.493 311.300 C 81.577 310.365,81.577 308.835,81.493 307.900 C 81.409 306.965,81.340 307.730,81.340 309.600 M103.879 308.528 C 104.002 308.727,103.854 309.047,103.551 309.239 C 103.248 309.431,103.197 309.591,103.438 309.594 C 103.679 309.597,104.193 309.250,104.580 308.822 C 105.257 308.074,105.252 308.046,104.470 308.105 C 104.022 308.138,103.756 308.329,103.879 308.528 M274.786 310.300 L 272.600 312.600 274.900 310.414 C 277.037 308.382,277.383 308.000,277.086 308.000 C 277.024 308.000,275.989 309.035,274.786 310.300 M97.505 310.683 C 98.002 310.779,98.722 310.775,99.105 310.675 C 99.487 310.575,99.080 310.496,98.200 310.501 C 97.320 310.505,97.007 310.587,97.505 310.683 M268.575 316.100 L 267.400 317.400 268.700 316.225 C 269.415 315.579,270.000 314.994,270.000 314.925 C 270.000 314.616,269.670 314.888,268.575 316.100 M102.575 318.900 L 101.400 320.200 102.700 319.025 C 103.912 317.930,104.184 317.600,103.875 317.600 C 103.806 317.600,103.221 318.185,102.575 318.900 M92.307 322.690 C 93.026 322.779,94.106 322.777,94.707 322.686 C 95.308 322.595,94.720 322.522,93.400 322.524 C 92.080 322.526,91.588 322.601,92.307 322.690 M164.691 327.889 C 165.401 327.977,166.661 327.979,167.491 327.892 C 168.321 327.805,167.740 327.733,166.200 327.731 C 164.660 327.729,163.981 327.800,164.691 327.889 M107.578 344.300 L 106.200 345.800 107.700 344.422 C 109.096 343.138,109.384 342.800,109.078 342.800 C 109.012 342.800,108.337 343.475,107.578 344.300 M124.900 367.876 C 125.285 367.976,125.915 367.976,126.300 367.876 C 126.685 367.775,126.370 367.693,125.600 367.693 C 124.830 367.693,124.515 367.775,124.900 367.876 M143.505 367.883 C 144.002 367.979,144.722 367.975,145.105 367.875 C 145.487 367.775,145.080 367.696,144.200 367.701 C 143.320 367.705,143.007 367.787,143.505 367.883 M132.313 368.295 C 133.476 368.376,135.276 368.376,136.313 368.293 C 137.351 368.211,136.400 368.145,134.200 368.146 C 132.000 368.147,131.151 368.214,132.313 368.295 " stroke="none" fill="#9a6898" fill-rule="evenodd"></path><path id="path3" d="M8.400 4.408 C 8.400 4.641,7.979 4.709,7.412 4.567 C 6.404 4.314,5.807 4.712,4.973 6.190 C 4.739 6.606,4.206 7.139,3.790 7.373 C 2.358 8.181,1.912 8.826,2.101 9.815 C 2.204 10.357,2.134 10.800,1.945 10.800 C 1.752 10.800,1.600 95.498,1.600 202.400 C 1.600 309.302,1.752 394.000,1.945 394.000 C 2.134 394.000,2.205 394.439,2.102 394.976 C 1.912 395.970,3.458 398.000,4.405 398.000 C 4.648 398.000,4.736 398.180,4.600 398.400 C 4.464 398.620,4.543 398.800,4.776 398.800 C 5.009 398.800,5.200 399.069,5.200 399.397 C 5.200 400.121,390.668 400.335,392.570 399.612 C 393.238 399.357,393.600 399.357,393.600 399.610 C 393.600 399.824,393.870 400.000,394.200 400.000 C 394.530 400.000,394.800 399.730,394.800 399.400 C 394.800 399.070,394.991 398.800,395.224 398.800 C 395.457 398.800,395.536 398.620,395.400 398.400 C 395.264 398.180,395.352 398.000,395.595 398.000 C 396.542 398.000,398.088 395.970,397.898 394.976 C 397.795 394.439,397.866 394.000,398.055 394.000 C 398.248 394.000,398.400 309.302,398.400 202.400 C 398.400 95.498,398.248 10.800,398.055 10.800 C 397.866 10.800,397.796 10.357,397.899 9.815 C 398.088 8.826,397.642 8.181,396.210 7.373 C 395.794 7.139,395.261 6.606,395.027 6.190 C 394.193 4.712,393.596 4.314,392.588 4.567 C 392.021 4.709,391.600 4.641,391.600 4.408 C 391.600 4.131,329.855 4.000,200.000 4.000 C 70.145 4.000,8.400 4.131,8.400 4.408 M392.400 200.000 L 392.400 392.400 200.000 392.400 L 7.600 392.400 7.600 200.000 L 7.600 7.600 200.000 7.600 L 392.400 7.600 392.400 200.000 M207.800 32.400 L 207.000 32.744 207.800 32.725 C 208.240 32.714,209.140 32.568,209.800 32.400 L 211.000 32.095 209.800 32.075 C 209.140 32.065,208.240 32.211,207.800 32.400 M216.000 32.400 C 217.542 32.894,218.364 32.894,217.600 32.400 C 217.270 32.187,216.550 32.027,216.000 32.046 L 215.000 32.080 216.000 32.400 M204.200 33.200 C 203.181 33.638,204.232 33.638,205.600 33.200 C 206.404 32.943,206.443 32.877,205.800 32.868 C 205.360 32.862,204.640 33.011,204.200 33.200 M220.653 33.947 C 221.783 34.570,223.313 35.494,224.053 36.002 C 224.794 36.509,225.130 36.637,224.800 36.287 C 224.041 35.479,219.588 32.798,219.024 32.807 C 218.791 32.811,219.524 33.324,220.653 33.947 M199.000 35.014 C 198.000 35.496,197.966 35.551,198.800 35.348 C 199.933 35.071,201.207 34.421,200.600 34.430 C 200.380 34.433,199.660 34.696,199.000 35.014 M194.600 36.778 C 193.720 37.195,193.113 37.550,193.251 37.568 C 193.640 37.618,196.400 36.414,196.400 36.195 C 196.400 35.927,196.399 35.927,194.600 36.778 M227.335 39.900 C 228.068 40.945,228.902 42.391,229.188 43.113 C 229.474 43.835,229.776 44.357,229.860 44.273 C 230.256 43.877,226.923 38.002,226.301 38.001 C 226.136 38.000,226.601 38.855,227.335 39.900 M186.711 40.560 C 184.616 41.805,184.284 42.263,186.200 41.265 C 188.205 40.220,189.119 39.603,188.600 39.644 C 188.380 39.661,187.530 40.074,186.711 40.560 M182.800 42.833 L 181.800 43.648 183.100 43.014 C 183.815 42.665,184.400 42.294,184.400 42.190 C 184.400 41.792,183.763 42.048,182.800 42.833 M179.087 45.031 C 177.829 45.818,176.800 46.549,176.800 46.656 C 176.800 46.915,179.536 45.364,180.800 44.389 C 182.378 43.172,181.583 43.470,179.087 45.031 M231.270 49.400 C 231.257 49.840,231.395 50.920,231.577 51.800 C 231.855 53.145,231.908 53.209,231.907 52.200 C 231.905 50.799,231.308 48.170,231.270 49.400 M170.200 51.035 L 169.000 52.066 170.300 51.206 C 171.015 50.733,171.600 50.268,171.600 50.173 C 171.600 49.873,171.431 49.978,170.200 51.035 M164.700 55.012 C 162.555 56.667,160.800 58.116,160.800 58.232 C 160.800 58.431,167.119 53.683,168.386 52.532 C 169.876 51.178,168.253 52.270,164.700 55.012 M232.158 59.400 C 232.158 62.480,232.221 63.687,232.297 62.082 C 232.373 60.478,232.373 57.958,232.296 56.482 C 232.219 55.007,232.157 56.320,232.158 59.400 M157.600 60.834 L 155.800 62.465 157.700 60.984 C 159.366 59.686,159.859 59.197,159.500 59.201 C 159.445 59.202,158.590 59.936,157.600 60.834 M153.800 63.879 C 149.990 67.350,146.041 71.198,146.309 71.180 C 146.634 71.157,155.916 62.399,155.600 62.413 C 155.490 62.418,154.680 63.077,153.800 63.879 M334.000 64.360 C 333.010 64.492,335.149 64.600,338.752 64.600 C 342.408 64.600,344.618 64.478,343.752 64.323 C 341.928 63.998,336.567 64.018,334.000 64.360 M328.400 65.200 L 327.400 65.520 328.400 65.520 C 328.950 65.520,329.850 65.376,330.400 65.200 L 331.400 64.880 330.400 64.880 C 329.850 64.880,328.950 65.024,328.400 65.200 M231.701 67.000 C 231.705 67.880,231.787 68.193,231.883 67.695 C 231.979 67.198,231.975 66.478,231.875 66.095 C 231.775 65.713,231.696 66.120,231.701 67.000 M324.800 66.000 C 323.996 66.257,323.957 66.323,324.600 66.332 C 325.040 66.338,325.760 66.189,326.200 66.000 C 327.219 65.562,326.168 65.562,324.800 66.000 M349.659 66.406 C 350.461 66.830,351.766 67.935,352.559 68.861 C 353.352 69.786,354.000 70.369,354.000 70.155 C 354.000 69.259,349.542 65.563,348.526 65.618 C 348.347 65.627,348.857 65.982,349.659 66.406 M321.400 66.800 C 320.896 67.017,320.822 67.144,321.200 67.144 C 321.530 67.144,322.160 66.989,322.600 66.800 C 323.104 66.583,323.178 66.456,322.800 66.456 C 322.470 66.456,321.840 66.611,321.400 66.800 M318.200 67.600 C 317.696 67.817,317.622 67.944,318.000 67.944 C 318.330 67.944,318.960 67.789,319.400 67.600 C 319.904 67.383,319.978 67.256,319.600 67.256 C 319.270 67.256,318.640 67.411,318.200 67.600 M231.301 70.200 C 231.305 71.080,231.387 71.393,231.483 70.895 C 231.579 70.398,231.575 69.678,231.475 69.295 C 231.375 68.913,231.296 69.320,231.301 70.200 M312.456 69.259 C 311.717 69.472,311.187 69.720,311.279 69.812 C 311.481 70.014,314.400 69.237,314.400 68.981 C 314.400 68.746,314.082 68.791,312.456 69.259 M306.200 71.414 C 304.585 72.154,305.551 72.155,307.254 71.416 C 307.994 71.094,308.330 70.839,308.000 70.848 C 307.670 70.857,306.860 71.112,306.200 71.414 M230.240 76.040 C 230.093 76.957,230.052 77.785,230.147 77.880 C 230.242 77.976,230.446 77.310,230.600 76.400 C 230.754 75.490,230.796 74.662,230.693 74.560 C 230.590 74.457,230.387 75.123,230.240 76.040 M140.058 77.138 C 133.814 83.938,126.906 92.000,127.323 92.000 C 127.419 92.000,129.356 89.795,131.628 87.100 C 133.900 84.405,137.104 80.806,138.747 79.101 C 140.391 77.397,141.660 75.929,141.568 75.840 C 141.476 75.750,140.796 76.334,140.058 77.138 M355.740 79.600 C 355.740 81.470,355.809 82.235,355.893 81.300 C 355.977 80.365,355.977 78.835,355.893 77.900 C 355.809 76.965,355.740 77.730,355.740 79.600 M229.450 79.650 C 229.117 81.317,229.440 81.640,229.800 80.000 C 229.952 79.309,229.993 78.659,229.891 78.558 C 229.789 78.456,229.591 78.947,229.450 79.650 M228.846 82.467 C 228.821 82.834,228.696 83.464,228.570 83.867 C 228.352 84.562,228.363 84.563,228.797 83.887 C 229.048 83.496,229.173 82.866,229.073 82.487 C 228.911 81.868,228.888 81.866,228.846 82.467 M273.100 85.624 C 270.075 87.154,267.600 88.496,267.600 88.605 C 267.600 88.784,278.760 83.332,279.167 82.955 C 279.807 82.360,277.848 83.222,273.100 85.624 M355.054 85.954 C 354.900 86.918,354.858 87.791,354.961 87.894 C 355.230 88.163,355.715 85.345,355.507 84.722 C 355.412 84.436,355.208 84.990,355.054 85.954 M228.046 85.267 C 228.021 85.634,227.896 86.264,227.770 86.667 C 227.552 87.362,227.563 87.363,227.997 86.687 C 228.248 86.296,228.373 85.666,228.273 85.287 C 228.111 84.668,228.088 84.666,228.046 85.267 M227.246 88.067 C 227.221 88.434,227.096 89.064,226.970 89.467 C 226.752 90.162,226.763 90.163,227.197 89.487 C 227.448 89.096,227.573 88.466,227.473 88.087 C 227.311 87.468,227.288 87.466,227.246 88.067 M354.250 90.050 C 353.917 91.717,354.240 92.040,354.600 90.400 C 354.752 89.709,354.793 89.059,354.691 88.958 C 354.589 88.856,354.391 89.347,354.250 90.050 M264.000 90.433 L 263.000 91.248 264.300 90.614 C 265.015 90.265,265.600 89.894,265.600 89.790 C 265.600 89.392,264.963 89.648,264.000 90.433 M125.377 94.300 C 123.217 97.000,123.076 97.200,123.328 97.200 C 123.452 97.200,124.384 96.120,125.400 94.800 C 127.587 91.958,127.568 91.560,125.377 94.300 M353.400 93.200 C 353.250 93.673,353.217 94.150,353.327 94.260 C 353.437 94.370,353.650 94.073,353.800 93.600 C 353.950 93.127,353.983 92.650,353.873 92.540 C 353.763 92.430,353.550 92.727,353.400 93.200 M252.800 96.833 L 251.800 97.648 253.100 97.014 C 253.815 96.665,254.400 96.294,254.400 96.190 C 254.400 95.792,253.763 96.048,252.800 96.833 M122.344 98.300 C 121.193 99.689,120.706 100.400,120.904 100.400 C 121.014 100.400,121.586 99.770,122.173 99.000 C 123.263 97.571,123.395 97.032,122.344 98.300 M246.182 101.058 C 242.098 103.785,238.731 106.320,236.584 108.287 C 234.918 109.812,236.109 109.002,238.951 106.674 C 240.245 105.615,243.215 103.476,245.552 101.922 C 247.888 100.367,249.971 98.939,250.180 98.748 C 251.153 97.858,249.837 98.618,246.182 101.058 M350.658 101.704 C 349.728 104.140,349.880 104.604,350.836 102.247 C 351.272 101.173,351.558 100.224,351.472 100.138 C 351.386 100.052,351.020 100.757,350.658 101.704 M119.923 101.500 C 119.218 102.321,118.690 103.200,118.901 103.200 C 118.983 103.200,119.449 102.660,119.937 102.000 C 120.901 100.696,120.892 100.372,119.923 101.500 M116.695 106.100 C 114.938 108.575,113.536 110.972,114.297 110.200 C 114.902 109.585,118.848 103.600,118.647 103.600 C 118.550 103.600,117.671 104.725,116.695 106.100 M219.000 108.800 C 218.443 109.900,218.077 110.800,218.187 110.800 C 218.297 110.800,218.843 109.900,219.400 108.800 C 219.957 107.700,220.323 106.800,220.213 106.800 C 220.103 106.800,219.557 107.700,219.000 108.800 M347.600 109.284 C 347.600 109.404,347.328 110.154,346.995 110.951 C 346.662 111.748,346.479 112.400,346.589 112.400 C 346.906 112.400,348.033 109.500,347.805 109.272 C 347.692 109.159,347.600 109.165,347.600 109.284 M112.873 111.800 C 112.622 112.350,112.483 112.800,112.563 112.800 C 112.643 112.800,113.003 112.350,113.363 111.800 C 113.724 111.250,113.863 110.800,113.673 110.800 C 113.484 110.800,113.123 111.250,112.873 111.800 M232.555 112.612 C 232.190 113.169,231.964 113.698,232.053 113.787 C 232.142 113.876,232.518 113.420,232.889 112.774 C 233.714 111.336,233.469 111.217,232.555 112.612 M215.858 113.832 C 215.230 114.619,214.150 115.608,213.458 116.030 C 212.766 116.452,212.424 116.798,212.699 116.799 C 213.304 116.800,216.288 114.157,216.835 113.134 C 217.427 112.028,217.125 112.243,215.858 113.832 M345.455 114.255 C 345.076 115.049,344.853 115.786,344.959 115.893 C 345.066 115.999,345.436 115.409,345.782 114.582 C 346.598 112.629,346.349 112.380,345.455 114.255 M111.508 114.100 C 110.633 115.449,109.848 117.056,110.287 116.600 C 110.848 116.017,112.498 113.200,112.279 113.200 C 112.176 113.200,111.829 113.605,111.508 114.100 M232.032 116.320 C 231.996 116.898,233.107 119.200,233.421 119.200 C 233.531 119.200,233.371 118.705,233.065 118.100 C 232.760 117.495,232.409 116.730,232.286 116.400 C 232.136 115.997,232.053 115.971,232.032 116.320 M109.014 118.235 C 108.641 118.804,108.405 119.338,108.489 119.422 C 108.573 119.507,108.958 119.041,109.344 118.388 C 110.206 116.928,109.948 116.809,109.014 118.235 M207.905 117.483 C 208.402 117.579,209.122 117.575,209.505 117.475 C 209.887 117.375,209.480 117.296,208.600 117.301 C 207.720 117.305,207.407 117.387,207.905 117.483 M203.700 117.887 C 204.305 117.978,205.295 117.978,205.900 117.887 C 206.505 117.795,206.010 117.720,204.800 117.720 C 203.590 117.720,203.095 117.795,203.700 117.887 M195.700 118.291 C 196.525 118.378,197.875 118.378,198.700 118.291 C 199.525 118.205,198.850 118.134,197.200 118.134 C 195.550 118.134,194.875 118.205,195.700 118.291 M191.305 118.687 C 191.914 118.779,192.814 118.777,193.305 118.682 C 193.797 118.587,193.300 118.511,192.200 118.514 C 191.100 118.517,190.697 118.595,191.305 118.687 M183.600 119.200 C 181.601 119.621,183.652 119.638,186.000 119.220 C 187.624 118.932,187.663 118.900,186.400 118.903 C 185.630 118.904,184.370 119.038,183.600 119.200 M178.000 120.020 C 177.326 120.249,177.651 120.284,179.000 120.128 C 180.100 120.001,181.075 119.831,181.167 119.749 C 181.482 119.468,178.999 119.680,178.000 120.020 M234.200 120.366 C 234.978 121.261,237.200 122.998,237.200 122.712 C 237.200 122.634,236.345 121.867,235.300 121.008 C 234.255 120.149,233.760 119.860,234.200 120.366 M106.800 122.400 C 106.134 123.720,105.678 124.800,105.788 124.800 C 105.898 124.800,106.534 123.720,107.200 122.400 C 107.866 121.080,108.322 120.000,108.212 120.000 C 108.102 120.000,107.466 121.080,106.800 122.400 M173.400 120.800 C 172.322 121.074,172.302 121.106,173.200 121.113 C 173.750 121.117,174.650 120.976,175.200 120.800 C 176.544 120.369,175.092 120.369,173.400 120.800 M169.400 121.600 L 168.600 121.944 169.400 121.944 C 169.840 121.944,170.560 121.789,171.000 121.600 L 171.800 121.256 171.000 121.256 C 170.560 121.256,169.840 121.411,169.400 121.600 M166.000 122.400 C 165.196 122.657,165.157 122.723,165.800 122.732 C 166.240 122.738,166.960 122.589,167.400 122.400 C 168.419 121.962,167.368 121.962,166.000 122.400 M162.800 123.200 C 161.976 123.464,161.941 123.526,162.600 123.554 C 163.040 123.573,163.670 123.413,164.000 123.200 C 164.701 122.747,164.214 122.747,162.800 123.200 M237.600 122.979 C 237.600 123.089,238.140 123.459,238.800 123.800 C 239.460 124.141,240.000 124.331,240.000 124.221 C 240.000 124.111,239.460 123.741,238.800 123.400 C 238.140 123.059,237.600 122.869,237.600 122.979 M160.000 124.000 C 159.467 124.345,159.467 124.388,160.000 124.388 C 160.330 124.388,160.870 124.213,161.200 124.000 C 161.733 123.655,161.733 123.612,161.200 123.612 C 160.870 123.612,160.330 123.787,160.000 124.000 M157.200 124.800 C 156.376 125.064,156.341 125.126,157.000 125.154 C 157.440 125.173,158.070 125.013,158.400 124.800 C 159.101 124.347,158.614 124.347,157.200 124.800 M242.400 125.600 C 243.610 126.239,244.780 126.762,245.000 126.762 C 245.220 126.762,244.410 126.239,243.200 125.600 C 241.990 124.961,240.820 124.438,240.600 124.438 C 240.380 124.438,241.190 124.961,242.400 125.600 M104.865 126.217 C 104.195 127.688,104.323 128.002,105.047 126.665 C 105.386 126.040,105.588 125.454,105.496 125.363 C 105.405 125.271,105.121 125.656,104.865 126.217 M339.000 127.200 C 338.659 127.860,338.469 128.400,338.579 128.400 C 338.689 128.400,339.059 127.860,339.400 127.200 C 339.741 126.540,339.931 126.000,339.821 126.000 C 339.711 126.000,339.341 126.540,339.000 127.200 M147.000 128.000 C 146.229 128.331,146.231 128.345,147.076 128.372 C 147.558 128.387,148.064 128.220,148.200 128.000 C 148.492 127.527,148.101 127.527,147.000 128.000 M196.600 128.363 C 195.500 128.493,198.740 128.600,203.800 128.600 C 208.860 128.600,212.190 128.478,211.200 128.330 C 209.049 128.007,199.420 128.028,196.600 128.363 M144.600 128.800 C 143.829 129.131,143.831 129.145,144.676 129.172 C 145.158 129.187,145.664 129.020,145.800 128.800 C 146.092 128.327,145.701 128.327,144.600 128.800 M186.600 129.213 C 185.890 129.401,186.706 129.441,188.600 129.312 C 190.360 129.191,191.875 129.026,191.967 128.946 C 192.280 128.671,187.803 128.894,186.600 129.213 M215.633 128.947 C 215.725 129.028,216.970 129.193,218.400 129.315 C 220.038 129.454,220.556 129.418,219.800 129.215 C 218.578 128.889,215.330 128.680,215.633 128.947 M141.800 129.814 C 140.800 130.296,140.766 130.351,141.600 130.148 C 142.733 129.871,144.007 129.221,143.400 129.230 C 143.180 129.233,142.460 129.496,141.800 129.814 M250.600 129.475 C 250.820 129.698,252.080 130.474,253.400 131.200 C 254.720 131.926,255.620 132.333,255.400 132.104 C 255.180 131.875,253.920 131.099,252.600 130.379 C 251.280 129.659,250.380 129.252,250.600 129.475 M180.400 130.000 L 179.400 130.320 180.400 130.313 C 180.950 130.309,181.940 130.168,182.600 130.000 L 183.800 129.695 182.600 129.687 C 181.940 129.683,180.950 129.824,180.400 130.000 M222.800 130.000 C 224.342 130.494,225.164 130.494,224.400 130.000 C 224.070 129.787,223.350 129.627,222.800 129.646 L 221.800 129.680 222.800 130.000 M175.400 130.800 L 174.600 131.144 175.400 131.132 C 175.840 131.126,176.650 130.976,177.200 130.800 L 178.200 130.480 177.200 130.468 C 176.650 130.462,175.840 130.611,175.400 130.800 M226.600 130.800 C 227.040 130.989,227.670 131.144,228.000 131.144 C 228.378 131.144,228.304 131.017,227.800 130.800 C 227.360 130.611,226.730 130.456,226.400 130.456 C 226.022 130.456,226.096 130.583,226.600 130.800 M336.246 132.230 C 334.822 134.777,334.938 135.042,336.434 132.659 C 337.104 131.592,337.571 130.638,337.472 130.539 C 337.373 130.439,336.821 131.200,336.246 132.230 M170.400 131.600 L 169.400 131.920 170.400 131.920 C 170.950 131.920,171.850 131.776,172.400 131.600 L 173.400 131.280 172.400 131.280 C 171.850 131.280,170.950 131.424,170.400 131.600 M229.600 131.600 C 229.930 131.813,230.470 131.988,230.800 131.988 C 231.333 131.988,231.333 131.945,230.800 131.600 C 230.470 131.387,229.930 131.212,229.600 131.212 C 229.067 131.212,229.067 131.255,229.600 131.600 M102.249 132.615 C 102.112 132.973,102.015 133.566,102.034 133.933 C 102.053 134.300,102.227 134.069,102.421 133.420 C 102.798 132.158,102.665 131.533,102.249 132.615 M166.600 132.400 C 165.581 132.838,166.632 132.838,168.000 132.400 C 168.804 132.143,168.843 132.077,168.200 132.068 C 167.760 132.062,167.040 132.211,166.600 132.400 M162.800 133.200 C 162.008 133.454,161.967 133.520,162.600 133.520 C 163.040 133.520,163.850 133.376,164.400 133.200 C 165.192 132.946,165.233 132.880,164.600 132.880 C 164.160 132.880,163.350 133.024,162.800 133.200 M257.400 133.477 C 258.186 134.250,262.800 137.643,262.800 137.447 C 262.800 137.337,261.765 136.458,260.500 135.494 C 258.180 133.726,256.627 132.716,257.400 133.477 M159.200 134.000 C 158.396 134.257,158.357 134.323,159.000 134.332 C 159.440 134.338,160.160 134.189,160.600 134.000 C 161.619 133.562,160.568 133.562,159.200 134.000 M238.600 135.121 C 240.140 135.946,241.940 136.953,242.600 137.358 L 243.800 138.095 242.800 137.256 C 241.708 136.340,236.692 133.594,236.142 133.611 C 235.954 133.616,237.060 134.296,238.600 135.121 M156.000 134.800 C 155.196 135.057,155.157 135.123,155.800 135.132 C 156.240 135.138,156.960 134.989,157.400 134.800 C 158.419 134.362,157.368 134.362,156.000 134.800 M101.656 136.411 C 101.594 138.403,102.432 140.007,103.523 139.988 C 104.089 139.978,104.069 139.903,103.400 139.529 C 102.214 138.866,102.237 138.913,101.965 136.675 L 101.713 134.600 101.656 136.411 M333.034 137.851 C 331.105 141.059,330.551 142.364,332.124 139.993 C 333.509 137.906,335.259 134.800,335.050 134.800 C 334.950 134.800,334.042 136.173,333.034 137.851 M152.800 135.600 C 151.996 135.857,151.957 135.923,152.600 135.932 C 153.040 135.938,153.760 135.789,154.200 135.600 C 155.219 135.162,154.168 135.162,152.800 135.600 M148.400 136.783 C 147.190 137.187,146.380 137.534,146.600 137.554 C 146.820 137.573,148.080 137.248,149.400 136.831 C 150.720 136.414,151.530 136.068,151.200 136.061 C 150.870 136.054,149.610 136.379,148.400 136.783 M143.656 138.059 C 142.917 138.272,142.390 138.523,142.485 138.618 C 142.580 138.713,143.454 138.540,144.429 138.235 C 146.418 137.611,145.745 137.458,143.656 138.059 M263.200 137.725 C 263.200 137.794,263.785 138.379,264.500 139.025 L 265.800 140.200 264.625 138.900 C 263.530 137.688,263.200 137.416,263.200 137.725 M113.600 138.800 C 112.776 139.064,112.741 139.126,113.400 139.154 C 113.840 139.173,114.470 139.013,114.800 138.800 C 115.501 138.347,115.014 138.347,113.600 138.800 M140.200 139.200 C 139.696 139.417,139.622 139.544,140.000 139.544 C 140.330 139.544,140.960 139.389,141.400 139.200 C 141.904 138.983,141.978 138.856,141.600 138.856 C 141.270 138.856,140.640 139.011,140.200 139.200 M109.800 139.600 C 108.711 139.877,108.693 139.907,109.600 139.925 C 110.150 139.935,110.960 139.789,111.400 139.600 C 112.386 139.176,111.466 139.176,109.800 139.600 M105.300 140.276 C 105.685 140.376,106.315 140.376,106.700 140.276 C 107.085 140.175,106.770 140.093,106.000 140.093 C 105.230 140.093,104.915 140.175,105.300 140.276 M266.314 140.430 C 267.068 141.445,271.200 145.502,271.200 145.228 C 271.200 145.090,269.995 143.812,268.523 142.388 C 267.050 140.965,266.056 140.084,266.314 140.430 M247.600 140.549 C 247.600 140.635,248.230 141.186,249.000 141.773 C 249.770 142.360,250.398 142.697,250.395 142.520 C 250.392 142.344,249.762 141.793,248.995 141.296 C 248.228 140.799,247.600 140.463,247.600 140.549 M330.553 142.100 C 329.176 144.436,329.086 144.635,329.787 143.800 C 330.600 142.832,331.300 141.600,331.038 141.600 C 330.933 141.600,330.715 141.825,330.553 142.100 M252.399 144.245 C 253.389 145.100,255.496 146.925,257.082 148.300 C 260.321 151.107,261.415 151.729,258.491 149.100 C 257.451 148.165,256.510 147.308,256.400 147.195 C 256.023 146.807,252.200 143.779,251.400 143.234 C 250.960 142.934,251.410 143.389,252.399 144.245 M274.280 149.166 C 277.963 153.723,279.260 155.122,277.078 152.186 C 276.092 150.858,274.447 148.878,273.423 147.786 C 272.221 146.504,272.525 146.993,274.280 149.166 M324.335 151.815 C 322.670 154.337,321.418 156.396,321.554 156.390 C 321.878 156.377,327.699 147.566,327.509 147.376 C 327.429 147.295,326.000 149.293,324.335 151.815 M260.866 151.613 C 261.232 151.827,263.302 153.851,265.466 156.112 C 267.630 158.373,268.772 159.498,268.005 158.612 C 265.307 155.495,261.016 151.200,260.610 151.212 C 260.385 151.219,260.500 151.399,260.866 151.613 M106.500 152.012 C 105.161 152.551,105.411 152.824,106.800 152.340 C 107.460 152.110,108.000 151.849,108.000 151.761 C 108.000 151.524,107.513 151.605,106.500 152.012 M102.800 153.800 C 101.810 154.330,101.180 154.764,101.400 154.764 C 101.620 154.764,102.610 154.330,103.600 153.800 C 104.590 153.270,105.220 152.836,105.000 152.836 C 104.780 152.836,103.790 153.270,102.800 153.800 M99.289 155.465 C 98.568 155.820,98.043 156.177,98.124 156.257 C 98.295 156.428,100.800 155.224,100.800 154.971 C 100.800 154.729,100.747 154.746,99.289 155.465 M282.575 160.471 C 287.121 167.337,288.204 168.787,285.957 165.000 C 283.947 161.612,279.644 155.274,279.143 154.965 C 278.944 154.842,280.489 157.320,282.575 160.471 M89.911 160.160 C 87.587 161.541,87.582 161.806,89.900 160.641 C 91.055 160.061,92.000 159.500,92.000 159.393 C 92.000 159.049,91.429 159.258,89.911 160.160 M315.618 164.231 C 314.035 166.337,311.763 169.212,310.570 170.619 C 309.376 172.025,308.400 173.282,308.400 173.412 C 308.400 173.758,311.166 170.505,314.101 166.708 C 317.918 161.769,318.916 160.400,318.696 160.400 C 318.587 160.400,317.202 162.124,315.618 164.231 M270.470 161.978 C 270.981 162.626,271.549 163.166,271.730 163.178 C 271.912 163.190,271.642 162.670,271.130 162.022 C 270.619 161.374,270.051 160.834,269.870 160.822 C 269.688 160.810,269.958 161.330,270.470 161.978 M83.100 163.829 C 81.605 164.640,81.696 164.978,83.200 164.200 C 83.860 163.859,84.400 163.494,84.400 163.390 C 84.400 163.132,84.357 163.147,83.100 163.829 M274.225 166.500 C 275.475 168.205,276.574 169.600,276.668 169.600 C 276.939 169.600,274.589 166.338,273.209 164.800 C 272.519 164.030,272.976 164.795,274.225 166.500 M191.300 164.299 C 194.105 164.368,198.695 164.368,201.500 164.299 C 204.305 164.230,202.010 164.174,196.400 164.174 C 190.790 164.174,188.495 164.230,191.300 164.299 M183.105 164.683 C 183.602 164.779,184.322 164.775,184.705 164.675 C 185.087 164.575,184.680 164.496,183.800 164.501 C 182.920 164.505,182.607 164.587,183.105 164.683 M207.700 164.676 C 208.085 164.776,208.715 164.776,209.100 164.676 C 209.485 164.575,209.170 164.493,208.400 164.493 C 207.630 164.493,207.315 164.575,207.700 164.676 M80.300 165.429 C 78.805 166.240,78.896 166.578,80.400 165.800 C 81.060 165.459,81.600 165.094,81.600 164.990 C 81.600 164.732,81.557 164.747,80.300 165.429 M178.905 165.087 C 179.514 165.179,180.414 165.177,180.905 165.082 C 181.397 164.987,180.900 164.911,179.800 164.914 C 178.700 164.917,178.297 164.995,178.905 165.087 M210.500 165.076 C 210.885 165.176,211.515 165.176,211.900 165.076 C 212.285 164.975,211.970 164.893,211.200 164.893 C 210.430 164.893,210.115 164.975,210.500 165.076 M216.200 166.190 C 218.180 166.729,219.980 167.160,220.200 167.148 C 220.950 167.109,215.914 165.656,214.254 165.433 C 213.344 165.310,214.220 165.651,216.200 166.190 M173.105 165.883 C 173.602 165.979,174.322 165.975,174.705 165.875 C 175.087 165.775,174.680 165.696,173.800 165.701 C 172.920 165.705,172.607 165.787,173.105 165.883 M77.500 167.029 C 76.005 167.840,76.096 168.178,77.600 167.400 C 78.260 167.059,78.800 166.694,78.800 166.590 C 78.800 166.332,78.757 166.347,77.500 167.029 M168.100 166.676 C 168.485 166.776,169.115 166.776,169.500 166.676 C 169.885 166.575,169.570 166.493,168.800 166.493 C 168.030 166.493,167.715 166.575,168.100 166.676 M162.400 167.600 C 161.056 168.031,162.508 168.031,164.200 167.600 C 165.278 167.326,165.298 167.294,164.400 167.287 C 163.850 167.283,162.950 167.424,162.400 167.600 M220.854 167.387 C 221.190 167.723,224.000 168.816,224.000 168.611 C 224.000 168.501,223.348 168.138,222.551 167.805 C 221.075 167.189,220.518 167.051,220.854 167.387 M74.700 168.629 C 73.205 169.440,73.296 169.778,74.800 169.000 C 75.460 168.659,76.000 168.294,76.000 168.190 C 76.000 167.932,75.957 167.947,74.700 168.629 M158.800 168.400 C 158.008 168.654,157.967 168.720,158.600 168.720 C 159.040 168.720,159.850 168.576,160.400 168.400 C 161.192 168.146,161.233 168.080,160.600 168.080 C 160.160 168.080,159.350 168.224,158.800 168.400 M288.208 169.100 C 289.962 171.854,293.031 175.988,293.327 175.993 C 293.507 175.997,293.036 175.235,292.280 174.300 C 291.525 173.365,290.227 171.565,289.397 170.300 C 288.566 169.035,287.802 168.000,287.697 168.000 C 287.593 168.000,287.823 168.495,288.208 169.100 M155.000 169.200 C 153.981 169.638,155.032 169.638,156.400 169.200 C 157.204 168.943,157.243 168.877,156.600 168.868 C 156.160 168.862,155.440 169.011,155.000 169.200 M224.800 168.945 C 224.800 169.067,225.655 169.658,226.700 170.259 C 227.745 170.860,229.635 172.044,230.900 172.891 C 232.165 173.737,233.200 174.340,233.200 174.230 C 233.200 173.982,229.255 171.310,226.700 169.827 C 225.655 169.220,224.800 168.823,224.800 168.945 M71.700 170.446 C 70.337 171.319,69.895 171.906,71.100 171.243 C 72.018 170.739,73.456 169.627,73.200 169.619 C 73.090 169.616,72.415 169.988,71.700 170.446 M151.800 170.000 C 150.781 170.438,151.832 170.438,153.200 170.000 C 154.004 169.743,154.043 169.677,153.400 169.668 C 152.960 169.662,152.240 169.811,151.800 170.000 M278.661 172.673 C 280.525 175.388,281.642 176.793,280.989 175.600 C 280.235 174.223,277.573 170.431,277.196 170.198 C 276.972 170.059,277.631 171.173,278.661 172.673 M148.600 170.800 C 147.581 171.238,148.632 171.238,150.000 170.800 C 150.804 170.543,150.843 170.477,150.200 170.468 C 149.760 170.462,149.040 170.611,148.600 170.800 M66.500 173.646 C 65.137 174.519,64.695 175.106,65.900 174.443 C 66.818 173.939,68.256 172.827,68.000 172.819 C 67.890 172.816,67.215 173.188,66.500 173.646 M137.600 174.000 C 137.067 174.345,137.067 174.388,137.600 174.388 C 137.930 174.388,138.470 174.213,138.800 174.000 C 139.333 173.655,139.333 173.612,138.800 173.612 C 138.470 173.612,137.930 173.787,137.600 174.000 M235.800 176.207 C 236.460 176.803,237.540 177.746,238.200 178.303 C 238.860 178.860,239.940 179.785,240.600 180.358 L 241.800 181.400 240.626 180.101 C 239.980 179.386,238.360 177.974,237.026 176.963 C 235.692 175.952,235.140 175.612,235.800 176.207 M304.600 177.032 C 302.166 179.164,300.905 179.719,299.056 179.471 C 297.998 179.329,297.641 179.381,298.021 179.621 C 299.658 180.657,302.310 179.674,305.158 176.974 C 307.038 175.191,306.656 175.231,304.600 177.032 M130.200 176.400 C 129.429 176.731,129.431 176.745,130.276 176.772 C 130.758 176.787,131.264 176.620,131.400 176.400 C 131.692 175.927,131.301 175.927,130.200 176.400 M281.724 177.400 C 282.062 178.060,282.638 178.960,283.004 179.400 C 283.370 179.840,283.265 179.480,282.770 178.600 C 281.680 176.658,280.864 175.722,281.724 177.400 M126.800 177.600 C 125.810 178.015,125.270 178.352,125.600 178.348 C 126.272 178.340,129.628 176.863,129.000 176.852 C 128.780 176.848,127.790 177.185,126.800 177.600 M59.029 178.608 C 57.944 179.358,56.774 180.278,56.429 180.653 C 55.796 181.339,59.695 178.726,60.786 177.733 C 61.763 176.844,61.106 177.171,59.029 178.608 M295.527 178.200 C 296.181 178.750,296.838 179.200,296.988 179.200 C 297.139 179.200,296.727 178.750,296.073 178.200 C 295.419 177.650,294.762 177.200,294.612 177.200 C 294.461 177.200,294.873 177.650,295.527 178.200 M120.201 180.054 C 118.021 180.938,117.206 181.483,118.798 180.992 C 120.269 180.538,123.064 179.258,122.600 179.250 C 122.380 179.247,121.301 179.608,120.201 180.054 M284.200 181.600 C 284.541 182.260,284.911 182.800,285.021 182.800 C 285.131 182.800,284.941 182.260,284.600 181.600 C 284.259 180.940,283.889 180.400,283.779 180.400 C 283.669 180.400,283.859 180.940,284.200 181.600 M242.000 181.367 C 242.000 181.788,243.205 182.928,243.421 182.712 C 243.522 182.611,243.244 182.202,242.802 181.802 C 242.361 181.403,242.000 181.207,242.000 181.367 M51.300 184.700 C 48.750 187.182,48.723 187.225,50.963 185.230 C 54.600 181.991,54.591 182.000,54.323 182.000 C 54.187 182.000,52.826 183.215,51.300 184.700 M244.564 184.200 C 245.114 184.750,245.693 185.200,245.852 185.200 C 246.010 185.200,245.717 184.750,245.200 184.200 C 244.683 183.650,244.104 183.200,243.912 183.200 C 243.720 183.200,244.014 183.650,244.564 184.200 M107.400 185.229 C 106.520 185.652,106.250 185.886,106.800 185.749 C 107.933 185.467,110.012 184.425,109.400 184.446 C 109.180 184.453,108.280 184.806,107.400 185.229 M286.678 186.195 C 287.044 186.962,287.414 187.519,287.501 187.432 C 287.684 187.249,286.470 184.800,286.196 184.800 C 286.095 184.800,286.312 185.428,286.678 186.195 M246.000 185.725 C 246.000 185.794,246.585 186.379,247.300 187.025 L 248.600 188.200 247.425 186.900 C 246.330 185.688,246.000 185.416,246.000 185.725 M250.202 190.700 C 251.261 192.075,252.201 193.200,252.289 193.200 C 252.570 193.200,249.899 189.632,249.071 188.902 C 248.633 188.516,249.142 189.325,250.202 190.700 M289.807 192.679 C 290.407 194.114,290.800 194.762,290.800 194.316 C 290.800 193.884,289.585 191.200,289.389 191.200 C 289.279 191.200,289.467 191.866,289.807 192.679 M45.467 192.667 C 45.320 192.813,45.215 193.398,45.234 193.967 C 45.268 194.981,45.275 194.979,45.621 193.820 C 45.985 192.603,45.931 192.202,45.467 192.667 M85.400 195.173 C 83.200 196.255,81.517 197.153,81.659 197.170 C 82.013 197.211,89.600 193.579,89.600 193.368 C 89.600 193.107,89.635 193.092,85.400 195.173 M254.266 196.500 C 256.315 199.714,257.457 201.103,255.991 198.600 C 254.703 196.399,252.798 193.600,252.589 193.600 C 252.494 193.600,253.248 194.905,254.266 196.500 M45.206 197.233 C 45.209 197.765,45.389 198.470,45.606 198.800 C 45.882 199.222,45.923 198.985,45.742 198.000 C 45.425 196.275,45.198 195.949,45.206 197.233 M46.024 199.861 C 46.011 200.115,46.831 201.195,47.846 202.261 C 49.321 203.810,49.421 203.872,48.346 202.568 C 47.606 201.671,46.786 200.591,46.524 200.168 C 46.261 199.746,46.036 199.608,46.024 199.861 M256.809 200.700 C 256.814 200.865,257.185 201.450,257.633 202.000 L 258.448 203.000 257.814 201.700 C 257.211 200.465,256.789 200.045,256.809 200.700 M70.400 202.400 C 69.630 202.822,69.180 203.166,69.400 203.166 C 69.620 203.166,70.430 202.822,71.200 202.400 C 71.970 201.978,72.420 201.634,72.200 201.634 C 71.980 201.634,71.170 201.978,70.400 202.400 M193.600 202.622 C 194.987 202.922,200.928 203.053,200.198 202.768 C 199.759 202.596,197.960 202.464,196.200 202.475 C 194.440 202.485,193.270 202.551,193.600 202.622 M202.300 204.298 C 203.015 204.971,203.600 205.749,203.600 206.027 C 203.600 206.306,203.714 206.419,203.854 206.279 C 204.230 205.904,202.938 204.101,201.900 203.552 C 201.272 203.220,201.392 203.445,202.300 204.298 M50.000 204.295 C 50.000 204.684,51.614 205.719,51.851 205.482 C 51.947 205.386,51.569 205.010,51.012 204.645 C 50.456 204.280,50.000 204.122,50.000 204.295 M184.856 204.459 C 184.117 204.672,183.590 204.923,183.685 205.018 C 183.780 205.113,184.654 204.940,185.629 204.635 C 187.618 204.011,186.945 203.858,184.856 204.459 M180.600 206.029 C 179.720 206.452,179.438 206.686,179.974 206.549 C 181.439 206.173,183.486 205.229,182.800 205.245 C 182.470 205.253,181.480 205.606,180.600 206.029 M176.600 207.629 C 175.720 208.052,175.450 208.286,176.000 208.149 C 177.133 207.867,179.212 206.825,178.600 206.846 C 178.380 206.853,177.480 207.206,176.600 207.629 M57.505 207.483 C 58.002 207.579,58.722 207.575,59.105 207.475 C 59.487 207.375,59.080 207.296,58.200 207.301 C 57.320 207.305,57.007 207.387,57.505 207.483 M296.833 212.000 C 296.821 212.330,297.067 213.410,297.379 214.400 C 297.691 215.390,297.956 215.930,297.967 215.600 C 297.979 215.270,297.733 214.190,297.421 213.200 C 297.109 212.210,296.844 211.670,296.833 212.000 M205.634 213.200 C 205.646 213.530,205.811 214.160,206.000 214.600 L 206.344 215.400 206.366 214.600 C 206.378 214.160,206.213 213.530,206.000 213.200 C 205.655 212.667,205.615 212.667,205.634 213.200 M160.700 215.429 C 159.205 216.240,159.296 216.578,160.800 215.800 C 161.460 215.459,162.000 215.094,162.000 214.990 C 162.000 214.732,161.957 214.747,160.700 215.429 M206.406 216.513 C 206.403 216.685,206.735 217.855,207.145 219.113 C 208.115 222.092,208.759 224.704,208.893 226.200 C 208.994 227.338,209.092 227.400,210.782 227.400 C 212.487 227.400,212.630 227.495,214.115 229.600 C 217.523 234.430,221.902 244.913,222.582 249.869 C 222.929 252.396,223.543 253.370,224.400 252.755 C 224.925 252.378,224.922 252.349,224.373 252.522 C 223.883 252.676,223.639 252.184,223.251 250.259 C 222.588 246.967,222.062 245.033,221.114 242.400 C 218.354 234.734,215.320 229.233,209.957 222.170 C 208.440 220.173,207.197 218.283,207.194 217.970 C 207.188 217.381,206.417 215.956,206.406 216.513 M153.779 219.880 C 149.713 222.620,142.783 229.048,142.821 230.046 C 142.833 230.351,143.133 230.151,143.490 229.600 C 144.814 227.559,149.937 222.921,153.610 220.439 C 157.466 217.834,158.317 217.200,157.959 217.200 C 157.849 217.200,155.968 218.406,153.779 219.880 M264.056 217.600 C 264.056 217.930,264.211 218.560,264.400 219.000 C 264.617 219.504,264.744 219.578,264.744 219.200 C 264.744 218.870,264.589 218.240,264.400 217.800 C 264.183 217.296,264.056 217.222,264.056 217.600 M298.480 219.000 C 298.480 219.440,298.624 220.250,298.800 220.800 C 299.054 221.592,299.120 221.633,299.120 221.000 C 299.120 220.560,298.976 219.750,298.800 219.200 C 298.546 218.408,298.480 218.367,298.480 219.000 M264.856 220.800 C 264.856 221.130,265.011 221.760,265.200 222.200 C 265.417 222.704,265.544 222.778,265.544 222.400 C 265.544 222.070,265.389 221.440,265.200 221.000 C 264.983 220.496,264.856 220.422,264.856 220.800 M299.293 223.000 C 299.294 223.660,299.432 224.740,299.600 225.400 C 300.023 227.063,300.042 225.426,299.623 223.400 C 299.345 222.055,299.292 221.991,299.293 223.000 M265.680 224.200 C 265.680 224.640,265.824 225.450,266.000 226.000 C 266.254 226.792,266.320 226.833,266.320 226.200 C 266.320 225.760,266.176 224.950,266.000 224.400 C 265.746 223.608,265.680 223.567,265.680 224.200 M300.076 228.400 C 300.067 228.950,300.203 230.210,300.380 231.200 C 300.620 232.550,300.707 232.700,300.727 231.800 C 300.742 231.140,300.605 229.880,300.423 229.000 C 300.216 227.998,300.086 227.774,300.076 228.400 M266.681 230.800 C 266.804 232.450,266.971 233.875,267.052 233.967 C 267.331 234.281,267.154 231.001,266.806 229.400 C 266.548 228.214,266.516 228.576,266.681 230.800 M142.203 231.592 C 142.064 232.027,142.137 232.702,142.363 233.092 C 142.700 233.670,142.778 233.524,142.788 232.300 C 142.801 230.642,142.587 230.382,142.203 231.592 M90.100 235.091 C 90.925 235.178,92.275 235.178,93.100 235.091 C 93.925 235.005,93.250 234.934,91.600 234.934 C 89.950 234.934,89.275 235.005,90.100 235.091 M300.987 244.200 C 300.986 252.739,301.021 253.272,301.308 249.026 C 301.486 246.400,301.486 242.080,301.309 239.426 C 301.021 235.112,300.987 235.619,300.987 244.200 M84.300 236.629 C 82.805 237.440,82.896 237.778,84.400 237.000 C 85.060 236.659,85.600 236.294,85.600 236.190 C 85.600 235.932,85.557 235.947,84.300 236.629 M101.200 237.133 C 101.530 237.336,102.250 237.624,102.800 237.771 C 103.495 237.957,103.617 237.925,103.200 237.667 C 102.870 237.464,102.150 237.176,101.600 237.029 C 100.905 236.843,100.783 236.875,101.200 237.133 M267.328 239.600 C 267.328 241.030,267.401 241.615,267.489 240.900 C 267.578 240.185,267.578 239.015,267.489 238.300 C 267.401 237.585,267.328 238.170,267.328 239.600 M81.634 238.564 C 81.113 239.119,80.808 239.841,80.917 240.264 C 81.094 240.948,81.111 240.945,81.154 240.226 C 81.179 239.800,81.591 239.035,82.070 238.526 C 82.548 238.017,82.849 237.600,82.739 237.600 C 82.629 237.600,82.132 238.034,81.634 238.564 M105.026 238.565 C 107.044 239.444,108.326 239.659,106.600 238.829 C 105.720 238.406,104.730 238.053,104.400 238.045 C 104.070 238.038,104.352 238.272,105.026 238.565 M81.212 242.000 C 81.212 242.330,81.387 242.870,81.600 243.200 C 81.945 243.733,81.988 243.733,81.988 243.200 C 81.988 242.870,81.813 242.330,81.600 242.000 C 81.255 241.467,81.212 241.467,81.212 242.000 M266.658 247.559 C 266.507 249.186,266.461 250.595,266.557 250.690 C 266.806 250.939,267.321 245.763,267.110 245.130 C 267.013 244.839,266.810 245.932,266.658 247.559 M83.054 247.200 C 83.189 247.750,83.545 248.740,83.845 249.400 C 84.284 250.364,84.343 250.403,84.146 249.600 C 84.011 249.050,83.655 248.060,83.355 247.400 C 82.916 246.436,82.857 246.397,83.054 247.200 M147.600 247.353 C 147.600 247.782,148.790 250.000,149.021 250.000 C 149.131 250.000,148.923 249.415,148.559 248.700 C 147.817 247.240,147.600 246.936,147.600 247.353 M149.607 251.200 C 150.340 252.625,153.130 256.710,153.544 256.966 C 153.889 257.179,149.865 250.913,149.356 250.444 C 149.211 250.310,149.323 250.650,149.607 251.200 M84.644 251.800 C 84.766 252.460,85.031 253.522,85.233 254.160 C 85.693 255.615,85.698 256.108,85.249 255.831 C 84.266 255.223,80.963 256.793,80.497 258.091 C 79.203 261.687,79.003 270.753,80.062 277.800 C 80.634 281.612,81.962 288.377,82.378 289.600 C 83.458 292.778,84.050 295.292,83.844 295.829 C 83.699 296.208,83.775 296.339,84.043 296.174 C 84.564 295.851,84.387 294.656,83.042 289.435 C 80.291 278.757,80.169 275.330,82.500 274.105 C 84.674 272.962,88.660 271.600,89.830 271.600 C 91.839 271.600,92.435 270.844,91.647 269.295 C 91.323 268.658,90.824 267.501,89.967 265.400 C 89.787 264.960,88.627 261.810,87.389 258.400 C 84.713 251.030,84.331 250.111,84.644 251.800 M112.421 252.250 C 112.409 252.497,112.680 253.487,113.021 254.450 C 116.649 264.670,118.560 279.476,117.016 285.402 C 116.097 288.930,111.880 296.692,109.194 299.800 C 108.704 300.367,108.440 301.590,108.289 304.000 C 108.138 306.384,108.176 306.922,108.414 305.800 C 108.601 304.920,108.764 303.446,108.777 302.524 C 108.790 301.602,108.983 300.734,109.206 300.596 C 109.844 300.202,113.390 294.807,114.973 291.824 C 119.032 284.173,120.601 274.100,119.020 265.837 C 118.408 262.642,117.093 259.200,116.484 259.200 C 115.832 259.200,114.400 257.721,114.400 257.048 C 114.400 256.685,114.233 256.077,114.030 255.695 C 113.826 255.313,113.385 254.280,113.050 253.400 C 112.715 252.520,112.432 252.002,112.421 252.250 M226.300 252.289 C 227.015 252.378,228.185 252.378,228.900 252.289 C 229.615 252.201,229.030 252.128,227.600 252.128 C 226.170 252.128,225.585 252.201,226.300 252.289 M265.800 253.200 C 265.648 253.891,265.614 254.547,265.724 254.657 C 265.834 254.767,266.048 254.291,266.200 253.600 C 266.352 252.909,266.386 252.253,266.276 252.143 C 266.166 252.033,265.952 252.509,265.800 253.200 M232.400 253.625 C 235.012 255.062,237.587 257.480,239.295 260.100 C 239.977 261.144,240.616 261.918,240.715 261.818 C 241.410 261.123,235.145 254.601,232.473 253.237 C 229.966 251.958,229.910 252.255,232.400 253.625 M300.229 257.629 C 300.076 258.979,300.033 260.166,300.133 260.267 C 300.234 260.367,300.444 259.347,300.600 258.000 C 300.756 256.653,300.799 255.466,300.695 255.362 C 300.591 255.258,300.381 256.278,300.229 257.629 M265.073 256.553 C 264.923 256.945,264.811 257.566,264.825 257.933 C 264.842 258.375,264.981 258.274,265.237 257.634 C 265.449 257.103,265.561 256.482,265.485 256.254 C 265.409 256.027,265.224 256.161,265.073 256.553 M155.819 259.954 C 156.909 261.358,158.475 263.203,159.300 264.054 C 160.273 265.057,160.800 265.976,160.800 266.669 C 160.800 269.348,168.282 273.903,175.827 275.817 C 184.930 278.126,197.484 277.837,207.883 275.079 C 209.397 274.677,210.102 274.645,210.464 274.963 C 210.762 275.225,210.743 275.113,210.417 274.682 C 210.096 274.260,209.610 274.065,209.236 274.210 C 205.259 275.752,194.171 276.944,187.282 276.569 C 182.625 276.316,182.399 276.265,183.001 275.599 C 183.597 274.940,183.517 274.879,181.718 274.613 C 172.338 273.226,165.167 269.278,157.582 261.325 C 154.343 257.929,154.106 257.744,155.819 259.954 M229.153 258.350 C 229.127 258.488,229.134 258.757,229.169 258.949 C 229.204 259.141,228.980 259.201,228.671 259.083 C 227.965 258.812,223.618 263.197,223.884 263.913 C 223.989 264.194,223.833 264.374,223.538 264.313 C 223.217 264.245,223.048 264.485,223.119 264.906 C 223.188 265.316,223.020 265.568,222.719 265.506 C 222.410 265.443,222.251 265.700,222.327 266.140 C 222.400 266.566,222.280 266.773,222.044 266.627 C 221.449 266.260,220.339 268.155,220.629 269.044 C 220.811 269.603,220.775 269.659,220.488 269.257 C 219.994 268.566,219.501 269.277,219.848 270.180 C 220.012 270.609,219.910 270.793,219.549 270.716 C 219.162 270.634,219.033 270.954,219.111 271.800 C 219.186 272.607,219.106 272.825,218.867 272.466 C 218.582 272.039,218.461 272.065,218.256 272.599 C 217.880 273.577,217.955 273.888,218.400 273.200 C 218.745 272.667,218.789 272.667,218.799 273.200 C 218.805 273.530,219.540 272.360,220.433 270.600 C 221.325 268.840,222.859 266.357,223.841 265.083 C 224.823 263.808,225.502 262.565,225.351 262.321 C 225.200 262.076,225.256 261.988,225.477 262.124 C 225.996 262.445,228.108 260.251,227.706 259.808 C 227.538 259.623,227.613 259.594,227.872 259.742 C 228.132 259.891,228.979 259.583,229.755 259.057 C 231.080 258.157,231.106 258.100,230.182 258.100 C 229.642 258.100,229.179 258.213,229.153 258.350 M264.229 259.829 C 264.081 260.415,264.038 260.972,264.132 261.066 C 264.227 261.160,264.424 260.758,264.571 260.171 C 264.719 259.585,264.762 259.028,264.668 258.934 C 264.573 258.840,264.376 259.242,264.229 259.829 M298.457 268.257 C 298.206 269.509,298.074 270.608,298.165 270.698 C 298.256 270.789,298.542 269.845,298.800 268.600 C 299.058 267.355,299.190 266.257,299.092 266.159 C 298.994 266.061,298.709 267.005,298.457 268.257 M243.444 268.200 C 243.773 269.671,244.002 269.990,243.994 268.967 C 243.991 268.545,243.805 267.930,243.582 267.600 C 243.285 267.162,243.248 267.324,243.444 268.200 M244.128 272.400 C 244.131 274.533,244.199 274.800,244.503 273.889 C 244.732 273.204,244.731 272.207,244.499 271.289 C 244.153 269.911,244.125 269.994,244.128 272.400 M259.014 272.235 C 258.641 272.804,258.427 273.361,258.539 273.472 C 258.650 273.583,259.029 273.118,259.381 272.437 C 260.159 270.933,259.944 270.815,259.014 272.235 M217.417 274.699 C 217.073 275.596,217.165 277.600,217.550 277.600 C 217.743 277.600,218.000 277.105,218.122 276.500 C 218.244 275.895,218.454 275.115,218.589 274.767 C 218.746 274.361,218.618 274.133,218.234 274.133 C 217.904 274.133,217.537 274.388,217.417 274.699 M257.544 274.700 C 256.393 276.089,255.906 276.800,256.104 276.800 C 256.214 276.800,256.786 276.170,257.373 275.400 C 258.463 273.971,258.595 273.432,257.544 274.700 M243.130 277.218 C 242.761 278.088,242.531 278.800,242.619 278.800 C 242.913 278.800,244.050 276.351,243.924 275.991 C 243.856 275.796,243.498 276.349,243.130 277.218 M296.040 277.440 C 295.810 278.273,295.694 279.027,295.782 279.115 C 295.870 279.203,296.130 278.593,296.360 277.760 C 296.590 276.927,296.706 276.173,296.618 276.085 C 296.530 275.997,296.270 276.607,296.040 277.440 M252.000 280.947 C 250.130 282.902,246.665 286.128,244.300 288.116 C 239.545 292.112,238.642 293.109,242.479 290.127 C 245.282 287.948,255.907 277.751,255.600 277.533 C 255.490 277.455,253.870 278.992,252.000 280.947 M213.967 279.745 C 214.500 280.401,216.000 281.393,216.000 281.089 C 216.000 281.013,215.415 280.522,214.700 279.999 C 213.896 279.410,213.616 279.313,213.967 279.745 M240.778 280.700 L 239.400 282.200 240.900 280.822 C 241.725 280.063,242.400 279.388,242.400 279.322 C 242.400 279.016,242.062 279.304,240.778 280.700 M217.200 281.814 C 217.200 282.093,220.106 283.231,220.491 283.103 C 220.682 283.039,220.020 282.684,219.019 282.313 C 218.019 281.942,217.200 281.717,217.200 281.814 M237.600 282.800 C 236.830 283.222,236.344 283.574,236.520 283.583 C 236.944 283.605,239.200 282.432,239.200 282.190 C 239.200 281.928,239.177 281.937,237.600 282.800 M223.600 283.980 C 224.599 284.320,227.082 284.532,226.767 284.251 C 226.675 284.169,225.700 283.999,224.600 283.872 C 223.251 283.716,222.926 283.751,223.600 283.980 M233.600 284.000 C 232.808 284.254,232.767 284.320,233.400 284.320 C 233.840 284.320,234.650 284.176,235.200 284.000 C 235.992 283.746,236.033 283.680,235.400 283.680 C 234.960 283.680,234.150 283.824,233.600 284.000 M292.278 287.405 C 291.912 288.172,291.695 288.800,291.796 288.800 C 292.070 288.800,293.284 286.351,293.101 286.168 C 293.014 286.081,292.644 286.638,292.278 287.405 M289.786 292.100 L 289.152 293.400 289.967 292.400 C 290.752 291.437,291.008 290.800,290.610 290.800 C 290.506 290.800,290.135 291.385,289.786 292.100 M235.985 294.829 L 234.600 296.058 236.100 294.981 C 237.426 294.030,237.857 293.600,237.485 293.600 C 237.422 293.600,236.747 294.153,235.985 294.829 M284.600 299.696 C 281.036 304.401,271.510 314.186,265.918 318.887 C 263.543 320.883,261.600 322.608,261.600 322.720 C 261.600 322.832,261.915 322.660,262.300 322.338 C 272.439 313.852,279.234 307.103,284.586 300.200 C 287.040 297.035,287.764 296.000,287.524 296.000 C 287.456 296.000,286.140 297.664,284.600 299.696 M228.056 300.204 C 223.512 303.283,221.697 304.626,223.200 303.797 C 225.931 302.290,233.965 296.647,233.124 296.826 C 233.056 296.841,230.775 298.361,228.056 300.204 M82.200 299.600 C 82.050 300.073,82.017 300.550,82.127 300.660 C 82.237 300.770,82.450 300.473,82.600 300.000 C 82.750 299.527,82.783 299.050,82.673 298.940 C 82.563 298.830,82.350 299.127,82.200 299.600 M81.400 302.800 C 81.248 303.491,81.207 304.141,81.309 304.242 C 81.411 304.344,81.609 303.853,81.750 303.150 C 82.083 301.483,81.760 301.160,81.400 302.800 M85.200 303.452 C 85.200 303.653,85.759 304.496,86.442 305.325 C 87.987 307.199,93.114 310.280,92.185 308.775 C 91.900 308.314,89.986 307.431,89.500 307.535 C 89.335 307.571,89.182 307.375,89.159 307.100 C 89.112 306.515,85.200 302.911,85.200 303.452 M220.900 304.846 C 219.537 305.719,219.095 306.306,220.300 305.643 C 221.218 305.139,222.656 304.027,222.400 304.019 C 222.290 304.016,221.615 304.388,220.900 304.846 M217.300 307.026 C 216.365 307.587,215.600 308.140,215.600 308.255 C 215.600 308.471,218.299 306.938,218.980 306.336 C 219.667 305.728,219.027 305.991,217.300 307.026 M80.931 309.400 C 80.933 310.940,81.005 311.521,81.092 310.691 C 81.179 309.861,81.177 308.601,81.089 307.891 C 81.000 307.181,80.929 307.860,80.931 309.400 M107.649 308.800 C 107.616 309.130,107.489 309.850,107.367 310.400 C 107.175 311.264,107.207 311.303,107.599 310.688 C 107.848 310.297,107.975 309.577,107.881 309.088 C 107.786 308.600,107.682 308.470,107.649 308.800 M213.600 309.236 C 212.936 309.779,212.869 309.915,213.400 309.640 C 214.705 308.966,215.428 308.412,215.000 308.415 C 214.780 308.417,214.150 308.786,213.600 309.236 M93.424 309.387 C 93.851 309.710,94.650 309.959,95.200 309.941 C 96.015 309.913,96.052 309.872,95.400 309.715 C 94.960 309.609,94.429 309.360,94.220 309.161 C 94.011 308.963,93.572 308.800,93.244 308.800 C 92.797 308.800,92.842 308.947,93.424 309.387 M101.424 309.413 C 100.746 309.925,100.734 310.000,101.324 310.000 C 101.696 310.000,102.000 309.833,102.000 309.628 C 102.000 309.423,102.405 309.178,102.900 309.082 C 103.671 308.934,103.685 308.903,103.000 308.867 C 102.560 308.844,101.851 309.090,101.424 309.413 M97.300 309.876 C 97.685 309.976,98.315 309.976,98.700 309.876 C 99.085 309.775,98.770 309.693,98.000 309.693 C 97.230 309.693,96.915 309.775,97.300 309.876 M105.478 315.405 C 105.112 316.172,104.895 316.800,104.996 316.800 C 105.270 316.800,106.484 314.351,106.301 314.168 C 106.214 314.081,105.844 314.638,105.478 315.405 M81.268 315.000 C 81.262 315.440,81.411 316.160,81.600 316.600 C 82.038 317.619,82.038 316.568,81.600 315.200 C 81.343 314.396,81.277 314.357,81.268 315.000 M120.716 315.128 C 120.339 315.278,121.689 315.408,123.716 315.419 C 125.759 315.429,126.954 315.313,126.400 315.158 C 125.104 314.797,121.595 314.779,120.716 315.128 M118.016 316.648 C 117.332 317.224,116.504 318.259,116.177 318.948 C 115.586 320.192,115.586 320.194,116.280 319.200 C 116.664 318.650,117.581 317.615,118.317 316.900 C 119.927 315.338,119.750 315.189,118.016 316.648 M132.600 317.218 C 133.700 317.648,134.780 317.989,135.000 317.977 C 135.601 317.944,131.894 316.445,131.200 316.441 C 130.870 316.439,131.500 316.789,132.600 317.218 M198.000 317.200 C 197.230 317.622,196.780 317.966,197.000 317.966 C 197.220 317.966,198.030 317.622,198.800 317.200 C 199.570 316.778,200.020 316.434,199.800 316.434 C 199.580 316.434,198.770 316.778,198.000 317.200 M102.530 319.209 C 100.259 321.393,100.150 321.965,102.400 319.891 C 103.795 318.604,105.032 317.192,104.749 317.209 C 104.667 317.213,103.668 318.113,102.530 319.209 M82.009 318.033 C 82.014 318.345,82.385 319.050,82.833 319.600 L 83.648 320.600 82.973 319.200 C 82.148 317.488,81.997 317.306,82.009 318.033 M191.200 320.200 C 190.650 320.514,190.380 320.772,190.600 320.772 C 190.820 320.772,191.450 320.514,192.000 320.200 C 192.550 319.886,192.820 319.628,192.600 319.628 C 192.380 319.628,191.750 319.886,191.200 320.200 M114.650 321.991 C 113.747 324.247,113.887 324.583,114.837 322.442 C 115.266 321.475,115.545 320.612,115.458 320.525 C 115.371 320.438,115.008 321.098,114.650 321.991 M88.000 322.382 C 88.330 322.605,88.945 322.791,89.367 322.794 C 90.390 322.802,90.071 322.573,88.600 322.244 C 87.724 322.048,87.562 322.085,88.000 322.382 M92.500 323.087 C 93.105 323.178,94.095 323.178,94.700 323.087 C 95.305 322.995,94.810 322.920,93.600 322.920 C 92.390 322.920,91.895 322.995,92.500 323.087 M257.327 325.767 C 255.307 327.325,253.507 328.767,253.327 328.970 C 252.849 329.512,255.411 327.727,258.400 325.436 C 259.830 324.340,261.075 323.388,261.167 323.321 C 261.258 323.255,261.258 323.140,261.167 323.067 C 261.075 322.993,259.347 324.208,257.327 325.767 M179.800 324.400 C 179.508 324.873,179.899 324.873,181.000 324.400 C 181.771 324.069,181.769 324.055,180.924 324.028 C 180.442 324.013,179.936 324.180,179.800 324.400 M158.433 326.547 C 158.525 326.628,159.320 326.804,160.200 326.938 C 161.315 327.107,161.558 327.071,161.000 326.819 C 160.232 326.471,158.090 326.244,158.433 326.547 M171.000 326.800 C 169.981 327.238,171.032 327.238,172.400 326.800 C 173.204 326.543,173.243 326.477,172.600 326.468 C 172.160 326.462,171.440 326.611,171.000 326.800 M164.691 327.489 C 165.401 327.577,166.661 327.579,167.491 327.492 C 168.321 327.405,167.740 327.333,166.200 327.331 C 164.660 327.329,163.981 327.400,164.691 327.489 M112.673 328.153 C 112.523 328.545,112.411 329.166,112.425 329.533 C 112.442 329.975,112.581 329.874,112.837 329.234 C 113.049 328.703,113.161 328.082,113.085 327.854 C 113.009 327.627,112.824 327.761,112.673 328.153 M111.800 332.400 C 111.648 333.091,111.607 333.741,111.709 333.842 C 111.811 333.944,112.009 333.453,112.150 332.750 C 112.483 331.083,112.160 330.760,111.800 332.400 M248.481 332.172 C 246.623 333.485,246.362 333.861,247.931 332.962 C 248.663 332.543,249.450 331.975,249.680 331.700 C 250.271 330.993,249.993 331.102,248.481 332.172 M111.000 336.400 C 110.848 337.091,110.807 337.741,110.909 337.842 C 111.011 337.944,111.209 337.453,111.350 336.750 C 111.683 335.083,111.360 334.760,111.000 336.400 M240.600 337.253 C 238.074 338.816,237.281 339.599,239.400 338.437 C 241.017 337.551,243.169 336.019,242.800 336.016 C 242.690 336.016,241.700 336.572,240.600 337.253 M110.229 339.829 C 110.081 340.415,110.038 340.972,110.132 341.066 C 110.227 341.160,110.424 340.758,110.571 340.171 C 110.719 339.585,110.762 339.028,110.668 338.934 C 110.573 338.840,110.376 339.242,110.229 339.829 M235.896 340.150 C 233.975 341.331,233.438 341.889,235.000 341.081 C 236.254 340.433,237.945 339.226,237.600 339.225 C 237.490 339.225,236.723 339.641,235.896 340.150 M105.848 345.535 C 105.052 346.620,104.400 347.658,104.400 347.843 C 104.400 348.027,104.698 347.733,105.061 347.189 C 105.425 346.645,106.177 345.707,106.732 345.104 C 107.287 344.501,107.641 343.908,107.519 343.785 C 107.396 343.663,106.644 344.450,105.848 345.535 M227.900 344.629 C 226.405 345.440,226.496 345.778,228.000 345.000 C 228.660 344.659,229.200 344.294,229.200 344.190 C 229.200 343.932,229.157 343.947,227.900 344.629 M220.000 348.800 C 219.230 349.222,218.744 349.574,218.920 349.583 C 219.344 349.605,221.600 348.432,221.600 348.190 C 221.600 347.928,221.577 347.937,220.000 348.800 M103.631 349.862 C 103.142 351.625,103.132 353.750,103.607 355.200 C 103.818 355.844,103.860 355.413,103.723 353.992 C 103.607 352.778,103.707 351.078,103.945 350.215 C 104.183 349.351,104.306 348.573,104.218 348.485 C 104.130 348.397,103.866 349.017,103.631 349.862 M214.000 351.600 C 213.230 352.022,212.780 352.366,213.000 352.366 C 213.220 352.366,214.030 352.022,214.800 351.600 C 215.570 351.178,216.020 350.834,215.800 350.834 C 215.580 350.834,214.770 351.178,214.000 351.600 M104.400 357.373 C 104.400 358.516,110.256 364.400,111.393 364.400 C 111.547 364.400,110.801 363.703,109.736 362.851 C 107.660 361.189,106.122 359.597,105.061 358.011 C 104.698 357.467,104.400 357.180,104.400 357.373 M188.800 360.800 C 187.976 361.064,187.941 361.126,188.600 361.154 C 189.040 361.173,189.670 361.013,190.000 360.800 C 190.701 360.347,190.214 360.347,188.800 360.800 M185.600 361.600 L 184.600 361.920 185.600 361.954 C 186.150 361.973,186.870 361.813,187.200 361.600 C 187.964 361.106,187.142 361.106,185.600 361.600 M182.200 362.400 C 181.111 362.677,181.093 362.707,182.000 362.725 C 182.550 362.735,183.360 362.589,183.800 362.400 C 184.786 361.976,183.866 361.976,182.200 362.400 M178.000 363.200 C 176.643 363.486,176.637 363.495,177.800 363.507 C 178.460 363.515,179.450 363.376,180.000 363.200 C 181.312 362.780,179.996 362.780,178.000 363.200 M173.800 364.000 L 172.200 364.286 173.600 364.315 C 174.370 364.331,175.360 364.189,175.800 364.000 C 176.743 363.595,176.062 363.595,173.800 364.000 M168.100 365.076 C 168.485 365.176,169.115 365.176,169.500 365.076 C 169.885 364.975,169.570 364.893,168.800 364.893 C 168.030 364.893,167.715 364.975,168.100 365.076 M163.300 365.876 C 163.685 365.976,164.315 365.976,164.700 365.876 C 165.085 365.775,164.770 365.693,164.000 365.693 C 163.230 365.693,162.915 365.775,163.300 365.876 M117.000 366.800 C 117.440 366.989,118.070 367.144,118.400 367.144 C 118.778 367.144,118.704 367.017,118.200 366.800 C 117.760 366.611,117.130 366.456,116.800 366.456 C 116.422 366.456,116.496 366.583,117.000 366.800 M158.305 366.683 C 158.802 366.779,159.522 366.775,159.905 366.675 C 160.287 366.575,159.880 366.496,159.000 366.501 C 158.120 366.505,157.807 366.587,158.305 366.683 M155.300 367.076 C 155.685 367.176,156.315 367.176,156.700 367.076 C 157.085 366.975,156.770 366.893,156.000 366.893 C 155.230 366.893,154.915 366.975,155.300 367.076 M120.000 367.600 C 120.550 367.776,121.450 367.917,122.000 367.913 C 122.898 367.906,122.878 367.874,121.800 367.600 C 120.108 367.169,118.656 367.169,120.000 367.600 M149.400 367.600 C 148.053 367.841,147.990 367.891,149.000 367.914 C 149.660 367.929,151.010 367.797,152.000 367.620 C 153.615 367.333,153.656 367.301,152.400 367.307 C 151.630 367.311,150.280 367.442,149.400 367.600 M125.800 368.465 C 128.316 368.798,140.539 368.790,144.000 368.453 C 145.430 368.314,141.470 368.200,135.200 368.200 C 128.930 368.200,124.700 368.319,125.800 368.465 " stroke="none" fill="#5f555f" fill-rule="evenodd"></path><path id="path4" d="M211.907 32.290 C 212.626 32.379,213.706 32.377,214.307 32.286 C 214.908 32.195,214.320 32.122,213.000 32.124 C 211.680 32.126,211.188 32.201,211.907 32.290 M154.575 63.700 L 153.400 65.000 154.700 63.825 C 155.912 62.730,156.184 62.400,155.875 62.400 C 155.806 62.400,155.221 62.985,154.575 63.700 M231.693 64.400 C 231.693 65.170,231.775 65.485,231.876 65.100 C 231.976 64.715,231.976 64.085,231.876 63.700 C 231.775 63.315,231.693 63.630,231.693 64.400 M337.300 64.694 C 338.345 64.776,340.055 64.776,341.100 64.694 C 342.145 64.612,341.290 64.544,339.200 64.544 C 337.110 64.544,336.255 64.612,337.300 64.694 M150.581 67.300 L 149.000 69.000 150.700 67.419 C 152.281 65.948,152.584 65.600,152.281 65.600 C 152.216 65.600,151.451 66.365,150.581 67.300 M142.981 74.500 L 141.400 76.200 143.100 74.619 C 144.681 73.148,144.984 72.800,144.681 72.800 C 144.616 72.800,143.851 73.565,142.981 74.500 M137.785 80.100 L 135.800 82.200 137.900 80.215 C 139.055 79.123,140.000 78.178,140.000 78.115 C 140.000 77.817,139.629 78.149,137.785 80.100 M234.778 110.300 L 233.400 111.800 234.900 110.422 C 236.296 109.138,236.584 108.800,236.278 108.800 C 236.212 108.800,235.537 109.475,234.778 110.300 M214.778 114.700 L 213.400 116.200 214.900 114.822 C 216.296 113.538,216.584 113.200,216.278 113.200 C 216.212 113.200,215.537 113.875,214.778 114.700 M205.105 117.483 C 205.602 117.579,206.322 117.575,206.705 117.475 C 207.087 117.375,206.680 117.296,205.800 117.301 C 204.920 117.305,204.607 117.387,205.105 117.483 M199.507 117.890 C 200.226 117.979,201.306 117.977,201.907 117.886 C 202.508 117.795,201.920 117.722,200.600 117.724 C 199.280 117.726,198.788 117.801,199.507 117.890 M191.900 118.282 C 192.395 118.378,193.205 118.378,193.700 118.282 C 194.195 118.187,193.790 118.109,192.800 118.109 C 191.810 118.109,191.405 118.187,191.900 118.282 M188.305 118.683 C 188.802 118.779,189.522 118.775,189.905 118.675 C 190.287 118.575,189.880 118.496,189.000 118.501 C 188.120 118.505,187.807 118.587,188.305 118.683 M233.600 119.325 C 233.600 119.394,234.185 119.979,234.900 120.625 L 236.200 121.800 235.025 120.500 C 233.930 119.288,233.600 119.016,233.600 119.325 M202.100 128.696 C 203.365 128.775,205.435 128.775,206.700 128.696 C 207.965 128.616,206.930 128.551,204.400 128.551 C 201.870 128.551,200.835 128.616,202.100 128.696 M192.905 129.087 C 193.514 129.179,194.414 129.177,194.905 129.082 C 195.397 128.987,194.900 128.911,193.800 128.914 C 192.700 128.917,192.297 128.995,192.905 129.087 M213.100 129.082 C 213.595 129.178,214.405 129.178,214.900 129.082 C 215.395 128.987,214.990 128.909,214.000 128.909 C 213.010 128.909,212.605 128.987,213.100 129.082 M184.100 129.876 C 184.485 129.976,185.115 129.976,185.500 129.876 C 185.885 129.775,185.570 129.693,184.800 129.693 C 184.030 129.693,183.715 129.775,184.100 129.876 M263.600 137.725 C 263.600 137.794,264.185 138.379,264.900 139.025 L 266.200 140.200 265.025 138.900 C 263.930 137.688,263.600 137.416,263.600 137.725 M105.100 139.889 C 105.815 139.978,106.985 139.978,107.700 139.889 C 108.415 139.801,107.830 139.728,106.400 139.728 C 104.970 139.728,104.385 139.801,105.100 139.889 M271.200 145.325 C 271.200 145.394,271.785 145.979,272.500 146.625 L 273.800 147.800 272.625 146.500 C 271.530 145.288,271.200 145.016,271.200 145.325 M263.400 154.400 C 264.928 155.940,266.269 157.200,266.379 157.200 C 266.489 157.200,265.328 155.940,263.800 154.400 C 262.272 152.860,260.931 151.600,260.821 151.600 C 260.711 151.600,261.872 152.860,263.400 154.400 M267.200 158.525 C 267.200 158.594,267.785 159.179,268.500 159.825 L 269.800 161.000 268.625 159.700 C 267.530 158.488,267.200 158.216,267.200 158.525 M193.718 163.898 C 195.433 163.973,198.133 163.972,199.718 163.897 C 201.303 163.821,199.900 163.759,196.600 163.760 C 193.300 163.761,192.003 163.822,193.718 163.898 M184.500 164.276 C 184.885 164.376,185.515 164.376,185.900 164.276 C 186.285 164.175,185.970 164.093,185.200 164.093 C 184.430 164.093,184.115 164.175,184.500 164.276 M306.185 175.300 L 304.200 177.400 306.300 175.415 C 308.251 173.571,308.583 173.200,308.285 173.200 C 308.222 173.200,307.277 174.145,306.185 175.300 M239.600 178.925 C 239.600 178.994,240.185 179.579,240.900 180.225 L 242.200 181.400 241.025 180.100 C 239.930 178.888,239.600 178.616,239.600 178.925 M50.386 185.900 L 48.200 188.200 50.500 186.014 C 51.765 184.811,52.800 183.776,52.800 183.714 C 52.800 183.417,52.418 183.763,50.386 185.900 M48.400 202.600 C 49.146 203.370,49.847 204.000,49.957 204.000 C 50.067 204.000,49.546 203.370,48.800 202.600 C 48.054 201.830,47.353 201.200,47.243 201.200 C 47.133 201.200,47.654 201.830,48.400 202.600 M208.056 223.200 C 208.056 223.530,208.211 224.160,208.400 224.600 C 208.617 225.104,208.744 225.178,208.744 224.800 C 208.744 224.470,208.589 223.840,208.400 223.400 C 208.183 222.896,208.056 222.822,208.056 223.200 M208.814 227.800 C 208.849 228.991,209.846 229.521,211.489 229.220 C 212.763 228.987,213.309 229.065,213.851 229.559 C 214.238 229.911,214.092 229.570,213.526 228.800 C 212.503 227.408,208.778 226.618,208.814 227.800 M300.501 234.200 C 300.505 235.080,300.587 235.393,300.683 234.895 C 300.779 234.398,300.775 233.678,300.675 233.295 C 300.575 232.913,300.496 233.320,300.501 234.200 M267.320 235.200 C 267.320 236.410,267.395 236.905,267.487 236.300 C 267.578 235.695,267.578 234.705,267.487 234.100 C 267.395 233.495,267.320 233.990,267.320 235.200 M300.942 244.200 C 300.941 246.180,301.008 247.040,301.092 246.112 C 301.176 245.184,301.177 243.564,301.095 242.512 C 301.012 241.460,300.943 242.220,300.942 244.200 M267.314 243.800 C 267.317 244.900,267.395 245.303,267.487 244.695 C 267.579 244.086,267.577 243.186,267.482 242.695 C 267.387 242.203,267.311 242.700,267.314 243.800 M300.493 254.000 C 300.493 254.770,300.575 255.085,300.676 254.700 C 300.776 254.315,300.776 253.685,300.676 253.300 C 300.575 252.915,300.493 253.230,300.493 254.000 M236.200 256.800 C 237.283 257.900,238.260 258.800,238.370 258.800 C 238.480 258.800,237.683 257.900,236.600 256.800 C 235.517 255.700,234.540 254.800,234.430 254.800 C 234.320 254.800,235.117 255.700,236.200 256.800 M229.600 257.753 C 229.600 257.838,230.050 257.993,230.600 258.098 C 231.150 258.203,231.600 258.134,231.600 257.945 C 231.600 257.755,231.150 257.600,230.600 257.600 C 230.050 257.600,229.600 257.669,229.600 257.753 M225.978 260.700 L 224.600 262.200 226.100 260.822 C 227.496 259.538,227.784 259.200,227.478 259.200 C 227.412 259.200,226.737 259.875,225.978 260.700 M226.778 261.500 L 225.400 263.000 226.900 261.622 C 228.296 260.338,228.584 260.000,228.278 260.000 C 228.212 260.000,227.537 260.675,226.778 261.500 M221.600 266.000 C 221.130 266.660,220.836 267.200,220.946 267.200 C 221.056 267.200,221.530 266.660,222.000 266.000 C 222.470 265.340,222.764 264.800,222.654 264.800 C 222.544 264.800,222.070 265.340,221.600 266.000 M91.600 271.200 C 91.270 271.413,90.533 271.591,89.963 271.594 C 87.656 271.607,80.800 274.530,80.800 275.499 C 80.800 276.268,81.550 276.116,85.060 274.635 C 86.840 273.885,89.309 273.144,90.548 272.989 C 92.576 272.736,92.800 272.613,92.800 271.754 C 92.800 270.721,92.532 270.598,91.600 271.200 M182.535 274.690 C 183.628 274.854,183.644 274.888,182.973 275.630 C 182.300 276.374,182.317 276.400,183.495 276.400 C 184.241 276.400,184.809 276.153,184.959 275.764 C 185.353 274.737,184.861 274.396,183.076 274.460 C 181.818 274.505,181.683 274.562,182.535 274.690 M188.300 276.682 C 188.795 276.778,189.605 276.778,190.100 276.682 C 190.595 276.587,190.190 276.509,189.200 276.509 C 188.210 276.509,187.805 276.587,188.300 276.682 M250.992 282.500 L 247.400 286.200 251.100 282.608 C 253.135 280.633,254.800 278.968,254.800 278.908 C 254.800 278.618,254.328 279.064,250.992 282.500 M228.311 284.293 C 229.251 284.378,230.691 284.377,231.511 284.291 C 232.330 284.205,231.560 284.136,229.800 284.137 C 228.040 284.139,227.370 284.209,228.311 284.293 M108.114 303.000 C 108.117 304.100,108.195 304.503,108.287 303.895 C 108.379 303.286,108.377 302.386,108.282 301.895 C 108.187 301.403,108.111 301.900,108.114 303.000 M84.406 302.300 C 84.415 302.746,85.187 303.860,85.194 303.438 C 85.197 303.239,85.594 303.419,86.076 303.838 C 86.950 304.599,86.950 304.598,86.048 303.300 C 85.212 302.095,84.392 301.596,84.406 302.300 M85.514 304.600 C 85.741 305.040,86.438 305.849,87.063 306.399 L 88.200 307.397 87.003 305.999 C 85.107 303.782,85.080 303.758,85.514 304.600 M278.581 306.500 L 277.000 308.200 278.700 306.619 C 279.635 305.749,280.400 304.984,280.400 304.919 C 280.400 304.616,280.052 304.919,278.581 306.500 M94.369 309.330 C 94.551 309.511,96.342 309.601,98.351 309.530 C 100.359 309.458,102.047 309.529,102.101 309.687 C 102.155 309.845,102.470 309.803,102.800 309.593 C 103.333 309.255,103.333 309.210,102.800 309.191 C 97.622 309.009,94.106 309.066,94.369 309.330 M92.600 309.600 C 93.701 310.073,94.092 310.073,93.800 309.600 C 93.664 309.380,93.158 309.213,92.676 309.228 C 91.831 309.255,91.829 309.269,92.600 309.600 M96.300 310.293 C 97.235 310.377,98.765 310.377,99.700 310.293 C 100.635 310.209,99.870 310.140,98.000 310.140 C 96.130 310.140,95.365 310.209,96.300 310.293 M270.000 315.000 C 269.028 315.990,268.323 316.800,268.433 316.800 C 268.543 316.800,269.428 315.990,270.400 315.000 C 271.372 314.010,272.077 313.200,271.967 313.200 C 271.857 313.200,270.972 314.010,270.000 315.000 M122.505 315.487 C 123.114 315.579,124.014 315.577,124.505 315.482 C 124.997 315.387,124.500 315.311,123.400 315.314 C 122.300 315.317,121.897 315.395,122.505 315.487 M103.714 352.600 C 103.717 353.700,103.795 354.103,103.887 353.495 C 103.979 352.886,103.977 351.986,103.882 351.495 C 103.787 351.003,103.711 351.500,103.714 352.600 M146.100 367.876 C 146.485 367.976,147.115 367.976,147.500 367.876 C 147.885 367.775,147.570 367.693,146.800 367.693 C 146.030 367.693,145.715 367.775,146.100 367.876 M127.900 368.282 C 128.395 368.378,129.205 368.378,129.700 368.282 C 130.195 368.187,129.790 368.109,128.800 368.109 C 127.810 368.109,127.405 368.187,127.900 368.282 M138.900 368.287 C 139.505 368.378,140.495 368.378,141.100 368.287 C 141.705 368.195,141.210 368.120,140.000 368.120 C 138.790 368.120,138.295 368.195,138.900 368.287 " stroke="none" fill="#7c7c7c" fill-rule="evenodd"></path></g></svg>