<svg id="svg" version="1.1" xmlns="http://www.w3.org/2000/svg" xmlns:xlink="http://www.w3.org/1999/xlink" width="400" height="400" viewBox="0, 0, 400,400"><g id="svgg"><path id="path0" d="M207.200 25.988 C 173.841 33.172,122.397 79.911,102.186 121.400 C 92.502 141.280,95.021 141.787,136.000 128.203 C 167.705 117.693,174.995 116.145,200.000 114.610 C 212.148 113.864,213.591 113.531,216.003 110.912 C 220.360 106.183,226.397 91.901,230.018 77.757 C 239.055 42.459,229.663 21.151,207.200 25.988 M339.200 59.054 C 317.287 61.782,278.798 77.601,251.024 95.294 C 228.147 109.866,227.706 114.296,248.134 124.335 C 266.732 133.473,275.904 142.452,291.229 166.524 C 301.538 182.718,304.661 182.703,317.687 166.400 C 344.736 132.544,366.227 83.941,361.301 67.762 C 359.211 60.898,350.848 57.603,339.200 59.054 M191.006 126.029 C 145.562 130.047,89.533 151.606,50.168 180.221 C 36.756 189.971,35.297 200.263,46.521 205.960 C 52.210 208.848,52.052 208.890,72.600 198.999 C 116.440 177.897,142.189 168.952,172.135 164.418 C 198.108 160.486,216.824 162.229,229.315 169.744 C 264.736 191.055,279.929 236.523,263.418 271.800 C 255.128 289.511,215.546 317.092,181.849 328.637 C 165.005 334.408,161.126 334.143,140.000 325.769 C 115.232 315.951,112.875 316.952,108.185 339.274 C 106.498 347.302,106.720 346.779,103.660 349.907 C 94.549 359.218,101.053 370.737,117.400 374.240 C 135.214 378.057,180.052 371.662,205.200 361.718 C 250.112 343.958,288.783 312.147,298.673 284.828 C 317.369 233.179,294.842 168.455,247.048 136.496 C 233.258 127.275,215.155 123.894,191.006 126.029 M190.000 203.425 C 171.339 207.456,141.967 224.753,140.212 232.746 C 139.424 236.333,146.124 251.765,151.625 259.032 C 153.399 261.377,153.601 261.853,153.606 263.721 C 153.609 264.865,153.768 266.045,153.957 266.345 C 154.165 266.672,154.244 265.899,154.157 264.411 L 154.010 261.932 157.749 265.466 C 159.954 267.551,162.945 269.869,165.043 271.120 C 169.059 273.513,169.309 273.399,168.430 269.576 C 166.283 260.252,170.251 245.716,177.800 235.251 C 181.723 229.812,193.498 221.225,198.400 220.228 C 198.510 220.206,198.780 220.080,199.000 219.949 C 199.220 219.818,199.940 219.568,200.600 219.393 C 201.260 219.218,201.980 219.020,202.200 218.953 C 204.548 218.239,205.827 218.091,206.296 218.480 C 207.268 219.286,207.184 218.570,205.578 212.377 C 203.853 205.721,203.286 204.579,201.172 203.501 C 199.469 202.632,193.846 202.594,190.000 203.425 M82.132 237.147 C 79.785 238.022,76.457 240.187,76.123 241.056 C 76.000 241.376,76.809 244.248,77.920 247.440 L 79.939 253.243 78.943 253.622 C 78.396 253.830,77.790 254.000,77.598 254.000 C 77.405 254.000,77.147 254.162,77.024 254.361 C 76.902 254.559,77.592 254.483,78.557 254.193 L 80.313 253.664 82.608 259.253 C 84.893 264.821,84.906 264.840,86.041 264.591 C 89.301 263.875,96.118 264.367,102.200 265.757 C 103.975 266.163,105.252 266.662,108.849 268.354 C 110.306 269.039,111.611 269.600,111.749 269.600 C 112.252 269.600,111.969 267.680,110.610 261.865 C 109.847 258.601,109.247 255.811,109.275 255.665 C 109.304 255.519,109.220 255.130,109.089 254.800 C 108.958 254.470,108.209 252.301,107.424 249.980 C 106.638 247.659,105.584 244.697,105.080 243.397 L 104.165 241.034 97.802 238.857 C 90.176 236.248,85.820 235.773,82.132 237.147 M224.600 255.220 C 215.368 260.216,208.702 272.280,211.424 279.067 C 214.779 287.435,234.578 290.760,242.277 284.248 C 252.939 275.229,236.750 248.644,224.600 255.220 M232.074 260.607 C 227.724 262.497,219.809 273.525,218.939 278.909 C 218.560 281.254,217.822 281.304,218.142 278.963 C 219.032 272.436,228.554 259.939,232.578 260.016 C 233.188 260.027,233.058 260.180,232.074 260.607 M74.093 270.800 C 74.093 271.570,74.175 271.885,74.276 271.500 C 74.376 271.115,74.376 270.485,74.276 270.100 C 74.175 269.715,74.093 270.030,74.093 270.800 M78.495 301.500 C 74.593 310.728,75.592 323.516,80.400 325.888 C 92.509 331.862,102.559 325.413,104.375 310.503 C 104.946 305.815,104.737 305.565,102.229 307.937 C 95.439 314.359,84.707 311.311,80.784 301.847 C 79.653 299.117,79.512 299.096,78.495 301.500 M84.279 310.979 C 87.962 313.696,94.576 314.816,98.600 313.403 C 99.974 312.921,100.094 312.921,99.447 313.404 C 94.533 317.070,81.947 312.749,80.214 306.800 C 80.035 306.186,80.393 306.526,81.140 307.681 C 81.810 308.715,83.223 310.200,84.279 310.979 " stroke="none" fill="#fcfcfc" fill-rule="evenodd"></path><path id="path1" d="M204.000 218.451 C 203.230 218.655,202.420 218.878,202.200 218.948 C 201.980 219.018,201.260 219.218,200.600 219.393 C 199.940 219.567,199.220 219.850,199.000 220.021 C 198.780 220.192,198.420 220.370,198.200 220.417 C 193.056 221.509,181.817 229.682,177.800 235.251 C 169.826 246.306,166.825 257.939,168.574 271.021 L 168.897 273.442 171.149 274.307 C 175.083 275.819,178.064 276.400,181.889 276.400 L 185.611 276.400 184.973 274.900 C 184.362 273.463,184.259 273.133,183.794 271.100 C 179.993 254.502,190.687 236.726,206.617 233.161 L 208.895 232.651 208.633 230.026 C 208.163 225.332,207.132 219.821,206.550 218.900 C 205.926 217.913,205.995 217.925,204.000 218.451 M89.000 264.303 C 88.120 264.359,86.820 264.501,86.112 264.618 L 84.824 264.832 85.755 266.916 C 90.018 276.460,90.619 277.252,93.287 276.852 C 97.327 276.245,106.950 280.835,111.117 285.356 C 113.330 287.757,113.378 287.599,113.048 279.063 C 112.753 271.439,112.488 269.098,111.955 269.428 C 111.758 269.549,110.383 269.077,108.899 268.378 C 104.210 266.171,104.142 266.149,98.800 265.039 C 95.753 264.407,91.897 264.117,89.000 264.303 " stroke="none" fill="#fcf4fc" fill-rule="evenodd"></path><path id="path2" d="M205.600 233.387 C 197.528 235.698,190.216 241.908,186.264 249.808 C 183.207 255.920,182.236 264.295,183.794 271.100 C 184.259 273.133,184.362 273.463,184.973 274.900 C 185.698 276.604,185.778 276.622,188.983 275.788 C 194.720 274.293,198.953 271.116,198.183 268.882 C 195.586 261.343,199.314 252.486,206.741 248.548 C 209.077 247.310,209.112 247.177,209.160 239.300 C 209.205 231.906,209.436 232.289,205.600 233.387 M181.705 276.687 C 182.314 276.779,183.214 276.777,183.705 276.682 C 184.197 276.587,183.700 276.511,182.600 276.514 C 181.500 276.517,181.097 276.595,181.705 276.687 M90.820 277.638 C 99.807 294.429,108.695 300.262,111.920 291.483 C 112.728 289.285,113.369 286.498,112.976 286.890 C 112.849 287.018,111.995 286.308,111.078 285.314 C 106.526 280.376,100.426 277.536,93.100 276.944 L 90.329 276.720 90.820 277.638 M113.314 281.400 C 113.317 282.500,113.395 282.903,113.487 282.295 C 113.579 281.686,113.577 280.786,113.482 280.295 C 113.387 279.803,113.311 280.300,113.314 281.400 M101.775 308.100 L 100.600 309.400 101.900 308.225 C 103.112 307.130,103.384 306.800,103.075 306.800 C 103.006 306.800,102.421 307.385,101.775 308.100 " stroke="none" fill="#fcecfc" fill-rule="evenodd"></path><path id="path3" d="M206.735 248.549 C 199.344 252.479,195.831 260.625,198.088 268.600 C 198.338 269.480,198.499 270.365,198.448 270.568 C 198.273 271.259,199.678 269.838,201.462 267.519 C 204.728 263.275,207.172 257.449,208.418 250.935 C 209.063 247.566,208.932 247.380,206.735 248.549 M85.392 295.521 C 80.493 297.214,79.486 298.785,81.148 302.140 C 85.813 311.561,95.461 314.237,101.900 307.896 C 104.272 305.560,104.380 305.026,103.054 302.200 C 100.272 296.273,92.126 293.192,85.392 295.521 M92.767 303.139 C 93.234 304.010,92.634 304.800,91.507 304.800 C 90.681 304.800,90.199 303.900,90.545 303.000 C 90.866 302.161,92.292 302.250,92.767 303.139 " stroke="none" fill="#fce4fc" fill-rule="evenodd"></path><path id="path4" d="M207.214 219.291 C 207.206 219.452,207.599 221.882,208.086 224.691 C 209.164 230.903,209.395 246.815,208.469 251.000 C 202.313 278.801,178.177 285.381,157.015 265.027 L 154.023 262.150 154.163 264.514 C 154.297 266.790,154.389 266.967,156.651 269.275 C 167.309 280.151,186.830 283.511,208.100 278.129 L 210.800 277.446 210.800 275.359 C 210.800 269.349,216.546 260.012,222.345 256.600 C 224.669 255.232,224.703 255.094,223.792 250.760 C 222.463 244.445,219.228 236.519,215.401 230.200 C 212.793 225.893,207.253 218.512,207.214 219.291 M78.800 254.110 C 76.799 254.628,76.498 254.985,75.585 257.944 C 72.993 266.335,74.841 287.134,79.195 298.588 L 79.601 299.656 80.947 298.229 C 87.443 291.341,103.947 296.118,103.996 304.900 C 104.022 309.479,113.341 293.519,115.346 285.463 C 118.066 274.538,115.578 258.138,110.905 256.186 C 109.062 255.416,109.097 255.106,110.426 260.372 C 117.347 287.795,111.781 304.072,99.879 291.216 C 95.063 286.014,88.007 273.180,82.701 259.974 L 80.200 253.748 78.800 254.110 M90.545 303.000 C 90.199 303.900,90.681 304.800,91.507 304.800 C 92.634 304.800,93.234 304.010,92.767 303.139 C 92.292 302.250,90.866 302.161,90.545 303.000 " stroke="none" fill="#fcd9fc" fill-rule="evenodd"></path></g></svg>