<svg width="13" height="12" viewBox="0 0 13 12" fill="none" xmlns="http://www.w3.org/2000/svg">
<path d="M11.7515 11.7867L10.4379 10.4869C9.38437 11.4323 8.00042 11.9999 6.5 11.9999C3.94062 11.9999 1.69515 10.3838 0.909458 7.97702C0.762179 7.52679 1.01229 7.04281 1.46765 6.89818C1.92725 6.75088 2.41177 7.00028 2.5591 7.44965C3.11188 9.14745 4.69625 10.2857 6.5 10.2857C7.52808 10.2857 8.47708 9.90595 9.21375 9.27333L7.99229 8.08951C7.55896 7.63955 7.87583 6.87354 8.515 6.85747H12.4935C12.7752 6.86551 13 7.09049 13 7.36904V11.2757C13 11.9198 12.2119 12.2423 11.7515 11.7867ZM11.5321 5.10049C11.0733 5.24613 10.5874 4.99839 10.4406 4.54902C9.88813 2.85336 8.30375 1.71507 6.5 1.71507C5.47192 1.71507 4.52292 2.09486 3.78625 2.72748L4.98333 3.91131C5.44104 4.36127 5.12417 5.12727 4.485 5.14334H0.505375C0.225333 5.1353 0 4.91032 0 4.63178V0.724088C0 0.0802164 0.787313 -0.242255 1.24773 0.213329L2.56127 1.51313C3.61563 0.568745 4.99958 0.000937462 6.47563 0.000937462C9.03365 0.000937462 11.2802 1.61705 12.0656 4.0238C12.239 4.47376 11.9871 4.97996 11.5321 5.10049Z" fill="white"/>
</svg>
